<svg width="800" height="300" viewBox="0 0 800 300" fill="none" xmlns="http://www.w3.org/2000/svg">
<path d="M152.169 159.597C151.041 160.049 149.854 160.467 148.642 160.792C147.523 161.092 146.37 161.45 145.335 161.878C145.114 161.987 144.928 162.037 144.766 162.18C143.977 162.591 143.272 163.13 142.567 163.669C141.225 164.628 140.001 165.655 138.659 166.614C138.082 167.069 137.479 167.43 136.901 167.885C136.451 168.256 135.907 168.651 135.516 169.056C134.445 170.092 133.019 170.924 131.863 171.833C131.608 172.001 131.354 172.17 131.099 172.338C128.763 174.063 127.166 175.19 125.069 176.502C124.212 177.031 123.295 177.527 122.192 178.072C121.31 178.508 120.139 179.172 119.07 179.658C118.629 179.876 118.187 180.095 117.78 180.254C117.059 180.547 114.328 181.728 114.132 181.931" stroke="#C0AA80" stroke-width="0.6" stroke-miterlimit="10"/>
<path d="M152.686 161.157C151.676 161.677 150.514 162.189 149.268 162.573C148.174 162.966 147.08 163.359 146.104 163.82C145.884 163.929 145.757 164.013 145.536 164.122C144.806 164.568 144.101 165.106 143.396 165.645C142.113 166.638 140.889 167.666 139.606 168.659C139.029 169.114 138.451 169.568 137.966 169.998C137.516 170.368 137.031 170.798 136.64 171.203C135.628 172.273 134.32 173.173 133.19 174.176C132.935 174.344 132.705 174.605 132.51 174.808C130.444 176.61 128.898 177.924 126.978 179.338C126.18 179.902 125.288 180.49 124.21 181.129C123.353 181.659 122.215 182.263 121.171 182.843C120.73 183.061 120.289 183.279 119.941 183.472C119.093 183.849 116.734 184.931 116.436 185.311" stroke="#C0AA80" stroke-width="0.6" stroke-miterlimit="10"/>
<path d="M153.238 162.657C152.347 163.246 151.244 163.791 149.988 164.327C148.919 164.814 147.85 165.3 146.934 165.795C146.713 165.904 146.586 165.989 146.424 166.132C145.753 166.611 145.048 167.15 144.402 167.723C143.179 168.75 141.955 169.778 140.731 170.805C140.213 171.294 139.635 171.749 139.116 172.237C138.666 172.608 138.241 173.071 137.849 173.476C136.837 174.547 135.707 175.549 134.635 176.586C134.44 176.788 134.21 177.05 134.014 177.252C132.22 179.132 130.782 180.666 129.005 182.242C128.232 182.899 127.425 183.615 126.44 184.228C125.548 184.817 124.529 185.49 123.46 185.976C123.019 186.194 122.612 186.353 122.23 186.605C121.313 187.101 119.362 188.023 118.809 188.571" stroke="#C0AA80" stroke-width="0.6" stroke-miterlimit="10"/>
<path d="M153.757 164.217C153.017 164.815 151.846 165.479 150.675 166.142C149.631 166.722 148.562 167.208 147.764 167.772C147.602 167.915 147.381 168.024 147.254 168.108C146.583 168.588 145.937 169.161 145.291 169.734C144.067 170.761 142.903 171.822 141.738 172.884C141.22 173.373 140.701 173.862 140.242 174.384C139.85 174.789 139.425 175.253 139.034 175.657C138.081 176.762 137.034 177.892 136.081 178.997C135.885 179.199 135.715 179.495 135.519 179.697C133.936 181.62 132.607 183.375 130.974 185.112C130.285 185.896 129.477 186.612 128.611 187.294C127.744 187.976 126.725 188.649 125.715 189.169C125.274 189.388 124.926 189.581 124.485 189.799C123.475 190.319 121.897 191.142 121.242 191.867" stroke="#C0AA80" stroke-width="0.6" stroke-miterlimit="10"/>
<path d="M154.308 165.719C152.998 167.169 149.596 168.83 148.083 170.085C145.729 172.115 143.341 174.204 141.307 176.497C139.733 178.268 138.277 180.107 136.964 182.108C135.651 184.109 134.373 186.05 132.942 187.983C131.613 189.738 129.93 191.288 128.004 192.304C126.519 193.102 124.847 193.949 123.673 195.163" stroke="#C0AA80" stroke-width="0.6" stroke-miterlimit="10"/>
<path d="M126.126 197.604C126.517 197.199 126.875 196.853 127.325 196.483C127.937 195.969 128.608 195.49 129.245 195.069C129.533 194.842 129.881 194.649 130.136 194.48C131.699 193.412 133.161 191.971 134.328 190.359C134.431 190.182 134.592 190.039 134.729 189.802C136.16 187.87 137.438 185.928 138.751 183.928C139.322 183.075 139.859 182.282 140.489 181.463C141.29 180.349 142.15 179.269 142.976 178.249C143.044 178.13 143.171 178.046 143.239 177.928C144.295 176.646 145.435 175.491 146.549 174.243C147.493 173.291 148.403 172.397 149.347 171.445C149.9 170.897 150.639 170.299 151.471 169.676C152.72 168.742 154.385 167.496 155.168 166.687" stroke="#C0AA80" stroke-width="0.6" stroke-miterlimit="10"/>
<path d="M126.126 197.604C126.517 197.199 126.875 196.853 127.325 196.483C127.937 195.969 128.608 195.49 129.245 195.069C129.533 194.842 129.881 194.649 130.136 194.48C131.699 193.412 133.161 191.971 134.328 190.359C134.431 190.182 134.592 190.039 134.729 189.802C136.16 187.87 137.438 185.928 138.751 183.928C139.322 183.075 139.859 182.282 140.489 181.463C141.29 180.349 142.15 179.269 142.976 178.249C143.044 178.13 143.171 178.046 143.239 177.928C144.295 176.646 145.435 175.491 146.549 174.243C147.493 173.291 148.403 172.397 149.347 171.445C149.9 170.897 150.639 170.299 151.471 169.676C152.72 168.742 154.385 167.496 155.168 166.687" stroke="#C0AA80" stroke-width="0.6" stroke-miterlimit="10"/>
<path d="M128.545 200.104C128.902 199.758 129.294 199.353 129.685 198.949C130.238 198.401 130.849 197.887 131.461 197.373C131.75 197.146 131.98 196.885 132.269 196.657C133.688 195.428 135.032 193.918 136.199 192.306C136.302 192.129 136.463 191.986 136.6 191.749C137.972 189.783 139.309 187.875 140.622 185.875C141.193 185.022 141.73 184.229 142.36 183.41C143.161 182.296 143.903 181.148 144.728 180.128C144.797 180.009 144.924 179.925 144.992 179.807C146.048 178.525 147.069 177.302 148.125 176.02C149.01 175.033 149.894 174.046 150.779 173.06C151.332 172.512 152.046 171.821 152.726 171.189C153.823 170.246 155.413 168.72 156.161 167.97" stroke="#C0AA80" stroke-width="0.6" stroke-miterlimit="10"/>
<path d="M128.545 200.104C128.902 199.758 129.294 199.353 129.685 198.949C130.238 198.401 130.849 197.887 131.461 197.373C131.75 197.146 131.98 196.885 132.269 196.657C133.688 195.428 135.032 193.918 136.199 192.306C136.302 192.129 136.463 191.986 136.6 191.749C137.972 189.783 139.309 187.875 140.622 185.875C141.193 185.022 141.73 184.229 142.36 183.41C143.161 182.296 143.903 181.148 144.728 180.128C144.797 180.009 144.924 179.925 144.992 179.807C146.048 178.525 147.069 177.302 148.125 176.02C149.01 175.033 149.894 174.046 150.779 173.06C151.332 172.512 152.046 171.821 152.726 171.189C153.823 170.246 155.413 168.72 156.161 167.97" stroke="#C0AA80" stroke-width="0.6" stroke-miterlimit="10"/>
<path d="M130.998 202.545C131.414 202.234 131.781 201.736 132.079 201.356C132.631 200.808 133.159 200.167 133.653 199.585C133.882 199.324 134.112 199.062 134.342 198.801C135.618 197.41 136.844 195.832 137.952 194.186C138.055 194.009 138.157 193.831 138.353 193.629C139.665 191.628 141.062 189.755 142.375 187.754C142.946 186.902 143.483 186.108 144.054 185.256C144.795 184.108 145.537 182.96 146.304 181.905C146.372 181.786 146.44 181.668 146.568 181.584C147.564 180.268 148.56 178.952 149.498 177.601C150.264 176.546 151.149 175.56 151.975 174.539C152.503 173.898 153.158 173.173 153.779 172.507C154.664 171.52 156.331 169.724 157.011 169.092" stroke="#C0AA80" stroke-width="0.6" stroke-miterlimit="10"/>
<path d="M130.998 202.545C131.414 202.234 131.781 201.736 132.079 201.356C132.631 200.808 133.159 200.167 133.653 199.585C133.882 199.324 134.112 199.062 134.342 198.801C135.618 197.41 136.844 195.832 137.952 194.186C138.055 194.009 138.157 193.831 138.353 193.629C139.665 191.628 141.062 189.755 142.375 187.754C142.946 186.902 143.483 186.108 144.054 185.256C144.795 184.108 145.537 182.96 146.304 181.905C146.372 181.786 146.44 181.668 146.568 181.584C147.564 180.268 148.56 178.952 149.498 177.601C150.264 176.546 151.149 175.56 151.975 174.539C152.503 173.898 153.158 173.173 153.779 172.507C154.664 171.52 156.331 169.724 157.011 169.092" stroke="#C0AA80" stroke-width="0.6" stroke-miterlimit="10"/>
<path d="M133.357 205.01C133.773 204.698 134.081 204.166 134.379 203.787C134.906 203.146 135.341 202.53 135.809 201.854C136.039 201.593 136.21 201.297 136.474 200.977C137.607 199.424 138.715 197.778 139.763 196.098C139.866 195.921 140.002 195.684 140.105 195.507C141.358 193.472 142.814 191.633 144.186 189.666C144.757 188.814 145.294 188.02 145.865 187.168C146.607 186.02 147.23 184.803 148.031 183.689C148.099 183.571 148.167 183.453 148.295 183.369C149.291 182.053 150.169 180.668 151.048 179.283C151.755 178.195 152.615 177.115 153.382 176.06C153.884 175.325 154.446 174.625 154.983 173.832C155.716 172.836 157.308 170.76 157.988 170.129" stroke="#C0AA80" stroke-width="0.6" stroke-miterlimit="10"/>
<path d="M133.357 205.01C133.773 204.698 134.081 204.166 134.379 203.787C134.906 203.146 135.341 202.53 135.809 201.854C136.039 201.593 136.21 201.297 136.474 200.977C137.607 199.424 138.715 197.778 139.763 196.098C139.866 195.921 140.002 195.684 140.105 195.507C141.358 193.472 142.814 191.633 144.186 189.666C144.757 188.814 145.294 188.02 145.865 187.168C146.607 186.02 147.23 184.803 148.031 183.689C148.099 183.571 148.167 183.453 148.295 183.369C149.291 182.053 150.169 180.668 151.048 179.283C151.755 178.195 152.615 177.115 153.382 176.06C153.884 175.325 154.446 174.625 154.983 173.832C155.716 172.836 157.308 170.76 157.988 170.129" stroke="#C0AA80" stroke-width="0.6" stroke-miterlimit="10"/>
<path d="M135.776 207.51C136.192 207.198 136.499 206.666 136.772 206.193C137.241 205.518 137.591 204.775 138.001 204.065C139.161 202.056 140.356 199.987 141.516 197.977C143.325 194.844 145.75 192.146 147.559 189.013C148.309 187.712 149.001 186.378 149.811 185.111C150.748 183.761 151.567 182.342 152.327 180.889C153.454 178.939 154.816 177.125 155.942 175.174C156.523 174.169 158.074 171.755 158.745 171.275" stroke="#C0AA80" stroke-width="0.6" stroke-miterlimit="10"/>
<path d="M139.071 209.175C139.428 208.83 139.735 208.298 140.008 207.825C140.418 207.116 140.802 206.313 141.212 205.604C142.313 203.56 143.507 201.491 144.55 199.413C145.48 197.665 146.495 196.044 147.45 194.388C148.329 193.004 149.173 191.678 149.933 190.226C150.035 190.048 150.103 189.93 150.206 189.753C150.795 188.595 151.266 187.37 151.974 186.281C152.076 186.104 152.178 185.926 152.247 185.808C152.793 184.862 153.305 183.976 153.817 183.089C154.021 182.734 154.167 182.346 154.338 182.05C154.542 181.695 154.722 181.247 154.927 180.893C155.814 179.356 156.913 177.862 157.741 176.291C157.775 176.232 157.844 176.114 157.878 176.055C158.594 174.813 159.737 173.108 160.392 172.383" stroke="#C0AA80" stroke-width="0.6" stroke-miterlimit="10"/>
<path d="M142.247 210.773C142.604 210.428 142.852 209.861 143.125 209.389C143.569 208.62 143.86 207.843 144.304 207.074C145.405 205.03 146.447 202.952 147.523 200.815C148.395 199.032 149.198 197.368 150.035 195.645C150.761 194.251 151.639 192.867 152.247 191.405C152.315 191.286 152.358 191.075 152.427 190.957C152.957 189.765 153.335 188.565 153.924 187.408C154.027 187.23 154.129 187.053 154.197 186.935C154.743 185.989 155.221 185.161 155.649 184.147C155.794 183.758 155.965 183.463 156.111 183.074C156.256 182.685 156.495 182.272 156.7 181.917C157.528 180.346 158.627 178.852 159.514 177.315C159.549 177.256 159.617 177.138 159.651 177.079C160.47 175.66 161.339 174.428 162.106 173.373" stroke="#C0AA80" stroke-width="0.6" stroke-miterlimit="10"/>
<path d="M145.364 212.336C145.662 211.957 145.91 211.391 146.183 210.918C146.567 210.115 146.893 209.278 147.277 208.476C148.32 206.398 149.362 204.32 150.286 202.173C151.098 200.357 151.69 198.649 152.468 196.892C153.076 195.43 153.861 194.07 154.468 192.608C154.536 192.49 154.58 192.279 154.648 192.16C155.06 190.901 155.438 189.7 155.968 188.509C156.07 188.332 156.173 188.154 156.182 188.002C156.669 187.022 157.147 186.194 157.575 185.18C157.72 184.792 157.832 184.462 157.977 184.073C158.123 183.684 158.303 183.236 158.508 182.882C159.243 181.336 160.375 179.783 161.229 178.305C161.263 178.246 161.331 178.128 161.365 178.069C162.253 176.532 162.858 175.62 163.761 174.329" stroke="#C0AA80" stroke-width="0.6" stroke-miterlimit="10"/>
<path d="M148.447 213.959C148.72 213.486 148.934 212.979 149.148 212.472C149.473 211.635 149.833 210.739 150.217 209.937C151.259 207.859 152.242 205.747 153.048 203.532C153.767 201.74 154.275 199.905 154.842 198.105C155.331 196.574 156.116 195.215 156.605 193.685C156.614 193.532 156.717 193.355 156.726 193.203C157.045 191.968 157.304 190.699 157.835 189.508C157.937 189.33 157.98 189.119 158.048 189.001C158.476 187.987 159.013 187.193 159.348 186.204C159.493 185.815 159.605 185.486 159.691 185.063C159.837 184.674 159.958 184.192 160.163 183.837C160.838 182.257 161.971 180.704 162.825 179.227C162.859 179.168 162.927 179.049 162.961 178.99C163.951 177.276 164.283 176.837 165.204 175.241" stroke="#C0AA80" stroke-width="0.6" stroke-miterlimit="10"/>
<path d="M151.564 215.522C152.222 214.247 152.559 212.707 153.157 211.398C154.14 209.286 155.064 207.139 155.87 204.925C156.53 203.099 156.826 201.221 157.274 199.352C157.714 197.635 158.508 196.123 158.888 194.372C159.191 192.892 159.401 191.437 159.94 190.093C160.368 189.079 160.812 188.311 161.121 187.228C161.354 186.417 161.493 185.63 161.784 184.852C162.435 183.179 163.636 181.508 164.523 179.971C165.581 178.138 165.649 178.02 166.707 176.188" stroke="#C0AA80" stroke-width="0.6" stroke-miterlimit="10"/>
<path d="M168.371 176.991C167.357 178.612 167.329 179.069 166.492 180.792C165.698 182.304 164.683 183.925 164.185 185.608C163.807 186.808 163.606 188.111 163.253 189.405C163.003 190.521 162.491 191.408 162.088 192.515C161.608 193.893 161.339 195.314 161.07 196.735C160.792 198.309 160.101 199.643 159.764 201.183C159.358 202.84 159.08 204.414 158.523 206.062C157.854 208.04 157.1 209.891 156.313 211.801C155.774 213.145 155.53 214.659 155.118 215.919" stroke="#C0AA80" stroke-width="0.6" stroke-miterlimit="10"/>
<path d="M169.968 177.912C169.021 179.415 169.103 180.092 168.368 181.638C167.726 183.159 166.898 184.73 166.399 186.413C165.901 188.095 165.673 189.855 165.233 191.572C164.949 192.748 164.487 193.821 164.084 194.928C163.638 196.247 163.31 197.634 163.075 198.996C162.841 200.358 162.37 201.583 162.017 202.877C161.655 204.323 161.395 205.592 160.94 207.063C160.441 208.746 159.825 210.36 159.267 212.008C158.753 213.445 158.67 214.817 158.495 216.213" stroke="#C0AA80" stroke-width="0.6" stroke-miterlimit="10"/>
<path d="M171.563 178.834C170.66 180.125 170.783 181.142 170.268 182.579C169.72 184.075 169.103 185.689 168.732 187.287C168.147 189.393 167.798 191.635 167.331 193.809C167.072 195.077 166.576 196.21 166.257 197.444C165.904 198.738 165.517 200.091 165.282 201.453C165.091 202.604 164.781 203.686 164.531 204.802C164.246 205.978 163.937 207.06 163.652 208.236C163.29 209.682 162.903 211.035 162.482 212.447C162.086 213.952 162.072 215.205 162.107 216.644" stroke="#C0AA80" stroke-width="0.6" stroke-miterlimit="10"/>
<path d="M173.16 179.755C172.359 180.869 172.522 182.225 172.144 183.425C171.748 184.93 171.377 186.529 170.981 188.034C170.334 190.656 169.899 193.321 169.346 195.917C169.052 197.245 168.581 198.471 168.287 199.798C167.934 201.092 167.522 202.352 167.381 203.689C167.233 204.628 167.144 205.601 166.877 206.472C166.636 207.436 166.345 208.214 166.162 209.212C165.971 210.362 165.72 211.479 165.495 212.689C165.217 214.262 165.237 215.456 165.578 216.914" stroke="#C0AA80" stroke-width="0.6" stroke-miterlimit="10"/>
<path d="M174.756 180.677C173.999 181.579 174.296 183.249 174.045 184.365C173.802 185.879 173.617 187.428 173.314 188.908C172.64 191.987 172.084 195.134 171.41 198.212C171.141 199.634 170.661 201.011 170.367 202.339C170.108 203.608 169.577 204.799 169.47 206.077C169.424 206.839 169.438 207.635 169.274 208.329C169.076 209.081 168.803 209.554 168.723 210.375C168.668 211.289 168.647 212.144 168.592 213.058C168.433 214.7 168.521 215.775 169.039 217.336" stroke="#C0AA80" stroke-width="0.6" stroke-miterlimit="10"/>
<path d="M176.609 180.88C176.147 181.953 176.301 183.461 176.144 184.552C175.909 185.914 176.077 188.218 175.876 189.52C175.432 192.338 175.022 195.096 174.636 197.947C174.436 199.25 174.083 200.544 173.976 201.822C173.843 203.007 173.5 204.148 173.486 205.401C173.49 206.349 173.587 207.272 173.38 208.177C173.241 208.964 172.993 209.53 172.972 210.385C172.952 211.24 172.931 212.095 172.851 212.916C172.75 214.592 172.839 215.668 173.416 217.262" stroke="#C0AA80" stroke-width="0.6" stroke-miterlimit="10"/>
<path d="M178.428 181.142C178.203 182.351 178.366 183.707 178.149 184.764C177.89 186.033 178.469 189.125 178.405 190.192C178.224 192.689 177.951 195.21 177.736 197.766C177.629 199.044 177.378 200.161 177.398 201.354C177.453 202.489 177.27 203.487 177.349 204.715C177.438 205.791 177.526 206.866 177.428 207.992C177.348 208.813 177.125 209.472 177.163 210.361C177.177 211.157 177.097 211.978 177.11 212.774C177.044 214.391 177.182 215.653 177.734 217.154" stroke="#C0AA80" stroke-width="0.6" stroke-miterlimit="10"/>
<path d="M180.281 181.345C180.292 182.691 180.372 183.919 180.248 184.951C180.057 186.102 180.895 189.975 180.933 190.864C181.017 193.04 180.88 195.325 180.836 197.586C180.797 198.745 180.673 199.778 180.914 200.862C181.155 201.947 181.1 202.861 181.307 204.005C181.504 205.301 181.583 206.529 181.569 207.782C181.514 208.696 181.35 209.39 181.414 210.372C181.461 211.109 181.415 211.871 181.37 212.632C181.303 214.249 181.56 215.579 182.019 217.105" stroke="#C0AA80" stroke-width="0.6" stroke-miterlimit="10"/>
<path d="M182.134 181.547C182.382 183.03 182.47 184.105 182.313 185.197C182.131 186.195 183.321 190.823 183.461 191.535C183.868 193.425 183.842 195.38 183.935 197.404C183.989 198.539 183.968 199.394 184.336 200.394C184.738 201.336 184.929 202.234 185.111 203.285C185.392 204.708 185.462 206.089 185.464 207.587C185.468 208.535 185.295 209.381 185.452 210.339C185.499 211.075 185.488 211.778 185.476 212.481C185.503 214.072 185.725 215.462 186.184 216.988" stroke="#C0AA80" stroke-width="0.6" stroke-miterlimit="10"/>
<path d="M183.894 181.775C184.403 183.487 184.475 184.317 184.259 185.375C184.145 186.255 185.687 191.638 185.871 192.138C186.601 193.741 186.653 195.426 186.95 197.095C187.131 198.146 187.145 198.942 187.734 199.834C188.322 200.725 188.674 201.48 188.949 202.506C189.374 204.091 189.342 205.648 189.487 207.309C189.55 208.291 189.402 209.23 189.618 210.221C189.758 210.933 189.663 211.509 189.651 212.211C189.678 213.803 190.018 215.261 190.384 216.812" stroke="#C0AA80" stroke-width="0.6" stroke-miterlimit="10"/>
<path d="M193.718 215.269C193.3 214.082 192.941 212.929 192.803 211.667C192.728 211.387 192.712 211.141 192.73 210.837C192.708 210.193 192.651 209.609 192.57 208.931C192.354 207.94 192.409 207.026 192.286 206.009C192.089 204.713 192.01 203.485 191.719 202.214C191.644 201.934 191.569 201.654 191.528 201.315C191.328 200.569 191.06 199.942 190.733 199.28C190.624 199.059 190.515 198.839 190.406 198.618C189.876 197.761 189.804 196.931 189.588 195.939C189.422 195.134 189.316 194.363 189.15 193.558C189 192.999 188.85 192.439 188.666 191.939C188.591 191.659 188.457 191.345 188.323 191.032C188.239 190.904 188.139 190.531 188.039 190.158C187.805 189.471 187.521 188.598 187.296 187.759C187.012 186.886 186.762 185.953 186.681 185.276C186.581 184.903 186.565 184.657 186.515 184.471C186.461 183.336 186.211 182.404 185.836 181.005" stroke="#C0AA80" stroke-width="0.6" stroke-miterlimit="10"/>
<path d="M197.027 213.633C196.516 212.471 196.123 211.377 195.892 210.14C195.817 209.86 195.801 209.615 195.726 209.335C195.61 208.717 195.613 208.166 195.438 207.514C195.163 206.488 195.124 205.599 194.909 204.607C194.618 203.336 194.412 202.192 194.062 200.887C193.987 200.607 193.912 200.328 193.837 200.048C193.637 199.302 193.369 198.674 193.042 198.012C192.933 197.792 192.824 197.571 192.714 197.351C192.278 196.468 192.078 195.722 191.863 194.731C191.697 193.926 191.497 193.18 191.331 192.375C191.181 191.815 190.997 191.315 190.754 190.78C190.679 190.501 190.545 190.187 190.411 189.873C190.361 189.687 190.227 189.373 190.127 189C189.893 188.313 189.609 187.44 189.291 186.626C189.007 185.752 188.782 184.913 188.582 184.167C188.482 183.794 188.467 183.549 188.417 183.362C188.21 182.218 187.69 181.208 187.424 180.03" stroke="#C0AA80" stroke-width="0.6" stroke-miterlimit="10"/>
<path d="M200.302 212.055C199.757 210.952 199.27 209.883 198.912 208.73C198.837 208.451 198.727 208.23 198.653 207.95C198.503 207.391 198.412 206.866 198.203 206.272C197.894 205.306 197.737 204.348 197.522 203.357C197.197 202.145 196.838 200.992 196.454 199.745C196.379 199.466 196.304 199.186 196.17 198.872C195.936 198.185 195.702 197.498 195.375 196.837C195.266 196.616 195.157 196.395 195.048 196.175C194.611 195.292 194.411 194.546 194.162 193.614C193.962 192.868 193.796 192.063 193.503 191.342C193.319 190.842 193.076 190.307 192.892 189.807C192.758 189.493 192.683 189.214 192.549 188.9C192.439 188.679 192.365 188.399 192.265 188.026C191.971 187.305 191.712 186.525 191.429 185.652C191.11 184.838 190.886 183.999 190.627 183.219C190.552 182.939 190.418 182.625 190.368 182.439C189.95 181.252 189.218 180.198 189.061 179.241" stroke="#C0AA80" stroke-width="0.6" stroke-miterlimit="10"/>
<path d="M203.578 210.479C202.939 209.401 202.419 208.391 201.967 207.263C201.892 206.983 201.783 206.762 201.708 206.483C201.524 205.982 201.374 205.423 201.131 204.888C200.822 203.922 200.572 202.99 200.204 201.989C199.786 200.802 199.334 199.674 198.856 198.452C198.782 198.173 198.647 197.859 198.538 197.638C198.304 196.951 198.07 196.265 197.802 195.637C197.693 195.416 197.584 195.196 197.475 194.975C197.098 194.127 196.839 193.347 196.555 192.474C196.296 191.693 196.096 190.948 195.803 190.227C195.619 189.726 195.342 189.251 195.098 188.717C194.964 188.403 194.889 188.123 194.815 187.843C194.74 187.564 194.665 187.284 194.531 186.97C194.237 186.249 193.919 185.435 193.66 184.655C193.342 183.841 193.083 183.061 192.824 182.281C192.749 182.001 192.581 181.746 192.472 181.525C191.843 180.295 190.899 179.199 190.852 178.462" stroke="#C0AA80" stroke-width="0.6" stroke-miterlimit="10"/>
<path d="M206.793 208.867C206.027 207.874 205.472 206.923 204.961 205.761C204.609 205.006 204.223 204.31 203.964 203.53C203.561 202.588 203.252 201.622 202.85 200.68C202.339 199.518 201.759 198.474 201.248 197.312C200.846 196.37 200.596 195.438 200.194 194.496C199.767 193.462 199.34 192.427 198.912 191.392C198.619 190.671 198.36 189.891 198.067 189.17C197.824 188.636 197.513 188.219 197.27 187.685C197.026 187.15 196.852 186.498 196.608 185.963C196.256 185.208 195.997 184.428 195.645 183.673C195.293 182.918 195.068 182.079 194.716 181.324C194.07 179.848 192.3 178.274 192.395 177.698" stroke="#C0AA80" stroke-width="0.6" stroke-miterlimit="10"/>
<path d="M193.415 177.026C193.599 177.526 194.803 178.852 195.585 180.091C195.669 180.219 195.778 180.439 195.862 180.567C196.249 181.263 196.601 182.018 196.987 182.714C197.29 183.282 197.567 183.758 197.869 184.326C197.953 184.454 198.003 184.64 198.146 184.802C198.39 185.336 198.599 185.93 198.842 186.464C199.085 186.999 199.362 187.474 199.639 187.949C199.748 188.17 199.858 188.39 200.026 188.645C200.244 189.086 200.428 189.587 200.646 190.028C200.973 190.69 201.276 191.258 201.603 191.92C201.796 192.268 201.955 192.675 202.089 192.989C202.466 193.837 202.843 194.686 203.221 195.534C203.28 195.568 203.246 195.627 203.305 195.661C203.741 196.544 204.305 197.342 204.8 198.259C204.909 198.479 205.018 198.7 205.162 198.861C205.657 199.778 206 200.685 206.495 201.602C206.63 201.916 206.823 202.264 207.016 202.612C207.268 202.994 207.427 203.401 207.68 203.783C207.982 204.352 208.259 204.827 208.595 205.336C208.932 205.846 209.302 206.296 209.605 206.865" stroke="#C0AA80" stroke-width="0.6" stroke-miterlimit="10"/>
<path d="M194.339 176.377C194.71 176.828 195.881 178.213 196.637 179.359C196.721 179.487 196.865 179.648 196.949 179.776C197.428 180.447 197.815 181.142 198.294 181.813C198.631 182.323 198.967 182.832 199.303 183.342C199.388 183.469 199.497 183.69 199.581 183.817C199.883 184.386 200.067 184.886 200.369 185.455C200.612 185.989 200.924 186.405 201.201 186.881C201.31 187.101 201.478 187.356 201.587 187.577C201.806 188.018 202.117 188.434 202.335 188.875C202.696 189.478 203.058 190.081 203.419 190.683C203.612 191.031 203.806 191.379 203.999 191.727C204.469 192.551 204.881 193.34 205.351 194.163C205.41 194.197 205.376 194.256 205.435 194.291C205.965 195.148 206.562 195.887 207.126 196.686C207.235 196.906 207.378 197.068 207.487 197.288C208.017 198.146 208.547 199.003 208.983 199.886C209.176 200.234 209.344 200.488 209.537 200.836C209.79 201.218 209.983 201.566 210.235 201.948C210.572 202.458 210.849 202.933 211.185 203.443C211.556 203.893 211.985 204.378 212.228 204.912" stroke="#C0AA80" stroke-width="0.6" stroke-miterlimit="10"/>
<path d="M195.36 175.705C195.976 176.14 196.994 177.516 197.726 178.569C197.869 178.731 197.953 178.858 198.037 178.985C198.551 179.597 199.031 180.268 199.579 180.821C199.949 181.271 200.379 181.756 200.715 182.265C200.799 182.393 200.942 182.554 201.026 182.681C201.363 183.191 201.606 183.725 201.908 184.294C202.185 184.769 202.463 185.245 202.74 185.72C202.849 185.941 203.051 186.136 203.161 186.357C203.472 186.773 203.724 187.155 204.036 187.571C204.431 188.115 204.827 188.659 205.247 189.295C205.44 189.643 205.668 189.932 205.861 190.28C206.365 191.044 206.836 191.868 207.34 192.632C207.399 192.666 207.365 192.725 207.424 192.759C207.988 193.558 208.713 194.213 209.277 195.011C209.42 195.173 209.529 195.393 209.732 195.589C210.354 196.421 210.918 197.22 211.448 198.077C211.675 198.366 211.868 198.714 212.095 199.003C212.348 199.385 212.6 199.767 212.827 200.056C213.164 200.565 213.534 201.016 213.905 201.466C214.275 201.916 214.798 202.376 214.982 202.876" stroke="#C0AA80" stroke-width="0.6" stroke-miterlimit="10"/>
<path d="M196.285 175.057C197.146 175.476 198.037 176.936 198.812 177.778C198.956 177.939 199.04 178.067 199.183 178.228C199.756 178.874 200.338 179.368 200.945 179.955C201.408 180.38 201.813 180.771 202.243 181.256C202.327 181.383 202.47 181.545 202.554 181.672C202.89 182.182 203.134 182.716 203.47 183.225C203.747 183.701 204.024 184.176 204.302 184.651C204.411 184.872 204.613 185.068 204.815 185.263C205.161 185.62 205.472 186.037 205.818 186.394C206.307 186.912 206.702 187.456 207.157 188.034C207.384 188.323 207.636 188.705 207.864 188.994C208.368 189.758 208.966 190.497 209.564 191.236C209.623 191.27 209.589 191.329 209.648 191.364C210.305 192.137 211.064 192.733 211.755 193.447C211.898 193.609 212.101 193.804 212.244 193.966C212.901 194.739 213.558 195.513 214.121 196.311C214.349 196.6 214.576 196.889 214.803 197.177C215.09 197.5 215.342 197.883 215.594 198.265C215.965 198.715 216.301 199.224 216.706 199.616C217.076 200.066 217.692 200.501 217.842 201.06" stroke="#C0AA80" stroke-width="0.6" stroke-miterlimit="10"/>
<path d="M197.21 174.409C198.259 174.778 199.056 176.263 199.866 177.046C201.045 178.279 202.498 179.039 203.619 180.237C204.774 181.377 205.223 183.055 206.378 184.195C207.246 185.011 208.115 185.828 208.881 186.822C209.706 187.85 210.59 188.912 211.484 189.822C212.2 190.63 213.12 191.082 213.871 191.831C215.059 192.911 216.146 194.169 217.208 195.334C217.864 196.107 218.487 196.94 219.178 197.654C219.583 198.045 220.233 198.42 220.349 199.039" stroke="#C0AA80" stroke-width="0.6" stroke-miterlimit="10"/>
<path d="M198.434 173.382C199.211 173.674 199.809 174.413 200.407 175.152C200.634 175.441 200.861 175.73 201.123 175.96C202.337 177.133 203.755 177.953 204.944 179.033C206.133 180.114 206.745 181.649 207.933 182.729C208.802 183.546 209.67 184.362 210.529 185.331C210.614 185.459 210.732 185.527 210.816 185.654C211.616 186.589 212.391 187.431 213.225 188.307C213.976 189.055 214.828 189.626 215.672 190.349C216.86 191.43 218.04 192.663 219.136 193.768C219.827 194.482 220.484 195.256 221.268 195.945C221.673 196.336 222.323 196.712 222.473 197.271" stroke="#C0AA80" stroke-width="0.6" stroke-miterlimit="10"/>
<path d="M199.658 172.355C200.401 172.705 201.092 173.419 201.724 174.099C201.952 174.388 202.213 174.618 202.475 174.848C203.723 175.962 205.141 176.782 206.423 177.837C207.646 178.858 208.478 180.284 209.667 181.365C210.595 182.216 211.497 182.973 212.331 183.849C212.416 183.976 212.534 184.045 212.618 184.172C213.452 185.048 214.286 185.923 215.155 186.74C215.905 187.488 216.758 188.059 217.601 188.783C218.79 189.863 220.038 190.978 221.193 192.118C221.943 192.866 222.634 193.58 223.452 194.21C223.891 194.542 224.507 194.977 224.784 195.452" stroke="#C0AA80" stroke-width="0.6" stroke-miterlimit="10"/>
<path d="M200.823 171.294C201.625 171.678 202.257 172.358 202.923 172.979C203.185 173.209 203.446 173.439 203.767 173.703C205.049 174.758 206.527 175.611 207.809 176.667C209.066 177.629 210.059 178.912 211.282 179.933C212.244 180.725 213.112 181.542 213.981 182.358C214.065 182.486 214.183 182.554 214.267 182.681C215.135 183.498 215.97 184.374 216.838 185.19C217.588 185.939 218.5 186.544 219.284 187.233C220.507 188.254 221.755 189.369 222.944 190.45C223.728 191.139 224.454 191.794 225.272 192.424C225.77 192.79 226.361 193.132 226.672 193.548" stroke="#C0AA80" stroke-width="0.6" stroke-miterlimit="10"/>
<path d="M202.081 170.207C202.883 170.592 203.549 171.213 204.216 171.834C204.477 172.064 204.798 172.327 205.093 172.498C206.409 173.494 207.853 174.407 209.203 175.344C210.554 176.281 211.65 177.387 212.932 178.442C213.893 179.234 214.796 179.992 215.723 180.842C215.842 180.911 215.926 181.038 216.044 181.106C216.912 181.923 217.84 182.774 218.742 183.531C219.527 184.22 220.404 184.885 221.188 185.574C222.471 186.629 223.694 187.651 224.976 188.706C225.794 189.336 226.613 189.967 227.431 190.597C227.929 190.963 228.461 191.27 228.959 191.636" stroke="#C0AA80" stroke-width="0.6" stroke-miterlimit="10"/>
<path d="M203.304 169.18C204.132 169.658 204.773 170.185 205.532 170.782C207.203 171.983 208.942 173.066 210.647 174.208C213.18 175.828 215.483 177.709 217.811 179.683C222.121 183.275 226.211 186.976 231.117 189.809" stroke="#C0AA80" stroke-width="0.6" stroke-miterlimit="10"/>
<path d="M204.471 167.567C205.249 167.859 206.008 168.455 206.742 168.958C207.713 169.597 208.718 170.177 209.689 170.816C210.457 171.26 211.192 171.763 211.96 172.206C212.137 172.309 212.315 172.411 212.492 172.514C213.615 173.162 214.713 173.717 215.709 174.45C215.97 174.68 216.207 174.816 216.502 174.987C216.798 175.157 217.094 175.328 217.389 175.499C217.862 175.772 218.301 176.104 218.715 176.343C218.951 176.479 219.212 176.709 219.449 176.845C220.36 177.451 221.204 178.174 222.116 178.779C223.23 179.58 224.309 180.44 225.389 181.3C226.528 182.194 227.804 182.851 229.045 183.568C229.754 183.978 230.532 184.269 231.3 184.713C231.985 185.029 232.703 185.286 233.353 185.661" stroke="#C0AA80" stroke-width="0.6" stroke-miterlimit="10"/>
<path d="M205.408 166.217C206.195 166.356 207.073 167.02 207.782 167.43C208.787 168.01 209.792 168.59 210.856 169.204C211.624 169.648 212.393 170.092 213.195 170.476C213.373 170.578 213.55 170.681 213.761 170.724C214.86 171.279 216.085 171.75 217.149 172.365C217.411 172.595 217.647 172.731 217.943 172.902C218.272 173.013 218.568 173.184 218.897 173.295C219.405 173.509 219.877 173.782 220.291 174.021C220.528 174.158 220.823 174.328 221.06 174.465C222.005 175.011 222.917 175.616 223.829 176.221C224.977 176.963 226.091 177.764 227.264 178.599C228.437 179.434 229.815 179.914 231.099 180.419C231.877 180.71 232.63 180.908 233.441 181.141C234.101 181.364 234.922 181.443 235.572 181.819" stroke="#C0AA80" stroke-width="0.6" stroke-miterlimit="10"/>
<path d="M206.507 164.724C207.303 164.71 208.274 165.35 208.983 165.759C210.022 166.28 211.12 166.835 212.159 167.356C213.021 167.775 213.73 168.185 214.533 168.569C214.71 168.672 214.922 168.715 215.099 168.817C216.265 169.254 217.559 169.607 218.657 170.162C218.919 170.392 219.155 170.529 219.485 170.64C219.815 170.752 220.144 170.863 220.508 170.916C221.015 171.129 221.522 171.343 222.004 171.464C222.275 171.541 222.57 171.712 222.841 171.789C223.821 172.276 224.767 172.822 225.712 173.368C226.988 174.026 228.043 174.793 229.25 175.569C230.457 176.344 231.903 176.706 233.265 176.941C234.111 177.114 234.873 177.16 235.719 177.333C236.353 177.463 237.242 177.424 237.927 177.741" stroke="#C0AA80" stroke-width="0.6" stroke-miterlimit="10"/>
<path d="M207.606 163.229C208.411 163.064 209.441 163.737 210.125 164.053C211.198 164.515 212.296 165.071 213.369 165.533C214.231 165.951 214.94 166.361 215.811 166.627C215.989 166.73 216.2 166.773 216.412 166.816C217.612 167.194 218.949 167.335 220.106 167.925C220.368 168.154 220.604 168.291 220.934 168.402C221.298 168.455 221.662 168.507 222.025 168.56C222.566 168.714 223.049 168.835 223.59 168.99C223.86 169.067 224.19 169.179 224.461 169.256C225.509 169.625 226.454 170.171 227.528 170.633C228.837 171.231 229.985 171.973 231.227 172.69C232.468 173.407 234.017 173.591 235.447 173.708C236.268 173.788 237.132 173.656 237.987 173.677C238.596 173.713 239.588 173.497 240.238 173.873" stroke="#C0AA80" stroke-width="0.6" stroke-miterlimit="10"/>
<path d="M208.67 161.795C209.391 161.502 210.632 162.219 211.292 162.442C212.399 162.844 213.531 163.34 214.605 163.802C215.678 164.264 216.564 164.776 217.681 165.027C218.915 165.346 220.321 165.369 221.487 165.806C221.749 166.035 222.044 166.206 222.349 166.224C222.747 166.218 223.111 166.27 223.508 166.263C224.025 166.325 224.6 166.421 225.175 166.516C226.63 166.726 227.906 167.384 229.284 167.864C230.662 168.344 231.81 169.086 233.085 169.743C234.327 170.46 236.012 170.408 237.485 170.313C238.374 170.275 239.213 170.05 240.137 169.953C240.814 169.871 241.874 169.537 242.465 169.878" stroke="#C0AA80" stroke-width="0.6" stroke-miterlimit="10"/>
<path d="M209.131 159.224C209.911 158.965 211.338 159.631 211.998 159.854C213.046 160.223 214.001 160.617 215.015 161.045C215.97 161.438 216.773 161.823 217.83 162.039C219.005 162.324 220.411 162.347 221.577 162.784C222.084 162.998 222.659 163.094 223.235 163.189C223.692 163.217 224.149 163.244 224.606 163.272C225.215 163.308 225.79 163.404 226.4 163.441C227.737 163.582 228.962 164.053 230.281 164.499C231.482 164.877 232.546 165.491 233.737 166.022C235.106 166.654 236.741 166.416 238.214 166.321C239.197 166.257 240.154 166.101 241.171 165.978C241.848 165.897 243.035 165.479 243.72 165.795" stroke="#C0AA80" stroke-width="0.6" stroke-miterlimit="10"/>
<path d="M209.498 156.678C210.303 156.512 211.918 157.129 212.611 157.293C213.575 157.534 214.437 157.953 215.333 158.312C216.169 158.638 216.947 158.929 217.852 159.136C219.028 159.421 220.34 159.469 221.54 159.847C222.352 160.079 223.148 160.066 224.028 160.18C224.578 160.182 225.119 160.337 225.669 160.339C226.338 160.41 226.981 160.388 227.591 160.424C228.869 160.531 230.01 160.875 231.186 161.16C232.268 161.469 233.189 161.922 234.237 162.291C235.674 162.805 237.284 162.474 238.826 162.261C239.901 162.172 240.977 162.084 242.087 161.936C242.824 161.889 244.172 161.328 244.822 161.703" stroke="#C0AA80" stroke-width="0.6" stroke-miterlimit="10"/>
<path d="M209.957 154.105C210.787 154.033 212.622 154.541 213.316 154.705C214.162 154.878 214.905 155.228 215.717 155.46C216.435 155.717 217.129 155.881 217.975 156.055C219.15 156.339 220.403 156.353 221.544 156.697C222.627 157.007 223.736 156.859 224.803 156.923C225.471 156.994 226.047 157.089 226.715 157.16C227.418 157.172 228.061 157.149 228.764 157.161C229.924 157.2 231.015 157.357 232.166 157.549C233.071 157.756 233.907 158.081 234.872 158.323C236.377 158.719 237.937 158.201 239.538 158.022C240.707 157.908 241.9 157.888 243.069 157.775C243.84 157.668 245.375 157.057 246.085 157.467" stroke="#C0AA80" stroke-width="0.6" stroke-miterlimit="10"/>
<path d="M210.325 151.559C211.18 151.579 213.201 152.037 213.929 152.142C214.657 152.247 215.341 152.563 216.034 152.727C216.728 152.891 217.303 152.987 217.972 153.057C219.088 153.308 220.307 153.381 221.483 153.666C222.81 153.959 224.2 153.737 225.537 153.878C226.299 153.924 226.958 154.147 227.754 154.134C228.516 154.179 229.227 154.039 229.93 154.05C230.997 154.114 232.013 153.992 233.104 154.149C233.891 154.288 234.619 154.393 235.406 154.532C237.013 154.751 238.548 154.139 240.149 153.96C241.445 153.763 242.723 153.87 243.985 153.732C244.756 153.625 246.419 152.93 247.187 153.374" stroke="#C0AA80" stroke-width="0.6" stroke-miterlimit="10"/>
<path d="M210.786 148.987C211.666 149.101 213.873 149.509 214.635 149.555C215.304 149.625 215.811 149.839 216.445 149.969C217.02 150.065 217.512 150.033 218.087 150.129C219.237 150.32 220.329 150.478 221.479 150.669C223.112 150.981 224.722 150.649 226.364 150.809C227.185 150.889 227.962 151.18 228.851 151.142C229.647 151.129 230.393 150.929 231.214 151.009C232.221 151.038 233.188 150.729 234.161 150.818C234.771 150.855 235.414 150.833 236.058 150.81C237.802 150.792 239.185 150.172 240.913 149.909C242.302 149.686 243.664 149.921 245.054 149.699C245.884 149.626 247.708 148.788 248.476 149.231" stroke="#C0AA80" stroke-width="0.6" stroke-miterlimit="10"/>
<path d="M210.413 147.038C211.233 147.118 213.425 147.28 214.221 147.267C214.865 147.244 215.406 147.399 215.981 147.495C216.498 147.556 217.023 147.465 217.632 147.502C218.453 147.582 219.215 147.628 220.07 147.648C220.375 147.667 220.679 147.685 220.984 147.703C222.567 147.829 224.143 147.556 225.759 147.623C226.614 147.644 227.308 147.808 228.197 147.769C228.595 147.762 228.934 147.722 229.366 147.656C229.705 147.615 230.137 147.549 230.535 147.543C231.517 147.479 232.449 147.229 233.398 147.225C234.041 147.203 234.626 147.146 235.269 147.123C236.158 147.085 236.997 146.86 237.836 146.635C238.582 146.435 239.235 146.261 240.04 146.095C241.37 145.838 242.742 145.921 244.097 145.757C244.961 145.626 246.624 144.93 247.435 145.163" stroke="#C0AA80" stroke-width="0.6" stroke-miterlimit="10"/>
<path d="M210.04 145.089C210.836 145.075 212.978 145.051 213.749 144.945C214.334 144.888 214.85 144.949 215.459 144.986C216.009 144.988 216.476 144.864 217.026 144.866C217.822 144.853 218.618 144.839 219.354 144.792C219.659 144.81 219.998 144.769 220.244 144.753C221.801 144.786 223.352 144.42 224.944 144.393C225.74 144.38 226.467 144.485 227.297 144.412C227.695 144.406 228.068 144.306 228.407 144.265C228.78 144.165 229.178 144.158 229.517 144.117C230.44 144.02 231.373 143.77 232.296 143.673C232.88 143.616 233.499 143.5 234.142 143.478C235.006 143.346 235.846 143.121 236.626 142.862C237.312 142.628 238.024 142.487 238.77 142.287C240.101 142.031 241.447 142.02 242.777 141.763C243.675 141.573 245.21 140.962 246.031 141.041" stroke="#C0AA80" stroke-width="0.6" stroke-miterlimit="10"/>
<path d="M209.668 143.141C210.498 143.068 212.531 142.823 213.336 142.657C213.896 142.508 214.446 142.51 215.03 142.453C215.522 142.422 216.081 142.272 216.572 142.24C217.343 142.133 218.114 142.027 218.885 141.92C219.165 141.845 219.469 141.864 219.808 141.823C221.316 141.669 222.892 141.396 224.399 141.242C225.229 141.17 225.932 141.181 226.762 141.109C227.101 141.068 227.474 140.968 227.847 140.868C228.22 140.768 228.559 140.727 228.932 140.627C229.889 140.471 230.762 140.187 231.686 140.089C232.304 139.973 232.863 139.824 233.448 139.767C234.253 139.601 235.092 139.376 235.872 139.117C236.559 138.883 237.212 138.708 237.958 138.509C239.229 138.218 240.55 138.114 241.855 137.764C242.847 137.548 244.161 137.046 245.025 136.915" stroke="#C0AA80" stroke-width="0.6" stroke-miterlimit="10"/>
<path d="M209.296 141.191C210.101 141.026 212.143 140.628 212.923 140.369C213.483 140.22 214.008 140.129 214.567 139.979C215.093 139.888 215.559 139.763 216.084 139.672C216.83 139.472 217.601 139.366 218.347 139.166C218.627 139.091 218.906 139.016 219.245 138.975C220.703 138.635 222.279 138.362 223.727 138.174C224.498 138.067 225.235 138.02 226.04 137.854C226.413 137.754 226.752 137.713 227.125 137.613C227.498 137.513 227.871 137.414 228.21 137.373C229.108 137.182 229.981 136.898 230.879 136.707C231.439 136.557 232.057 136.442 232.651 136.233C233.49 136.008 234.27 135.749 235.05 135.49C235.737 135.256 236.424 135.022 237.076 134.847C238.382 134.497 239.619 134.266 240.89 133.975C241.916 133.7 243.103 133.282 244.035 133.032" stroke="#C0AA80" stroke-width="0.6" stroke-miterlimit="10"/>
<path d="M208.958 139.184C209.797 138.959 211.73 138.341 212.51 138.082C214.232 137.421 216.062 136.98 217.818 136.26C220.574 135.172 223.615 134.956 226.446 134.148C229.032 133.355 231.558 132.528 234.119 131.642C236.994 130.622 240.086 130.043 242.911 128.837" stroke="#C0AA80" stroke-width="0.6" stroke-miterlimit="10"/>
<path d="M207.703 137.671C208.551 137.294 210.45 136.735 211.264 136.417C211.451 136.367 211.671 136.258 211.798 136.174C212.706 135.831 213.554 135.453 214.462 135.11C215.148 134.876 215.835 134.642 216.497 134.315C216.59 134.29 216.718 134.206 216.811 134.181C218.032 133.704 219.278 133.32 220.491 132.995C221.796 132.645 223.042 132.262 224.288 131.878C224.568 131.803 224.848 131.728 225.068 131.619C225.348 131.544 225.662 131.41 225.942 131.335C226.535 131.126 227.07 130.883 227.638 130.58C229.046 130.053 230.488 129.467 231.837 128.906C232.116 128.831 232.371 128.663 232.685 128.529C233.94 127.992 235.221 127.549 236.467 127.165C237.467 126.797 238.434 126.488 239.469 126.061C240.096 125.793 240.792 125.407 241.42 125.139" stroke="#C0AA80" stroke-width="0.6" stroke-miterlimit="10"/>
<path d="M206.448 136.158C207.306 135.629 209.077 135.154 210.078 134.786C210.264 134.736 210.485 134.627 210.612 134.543C211.554 134.141 212.318 133.636 213.26 133.234C213.981 132.941 214.667 132.707 215.329 132.379C215.422 132.355 215.55 132.27 215.643 132.245C216.839 131.675 218.086 131.291 219.366 130.848C220.705 130.439 221.868 129.928 223.123 129.392C223.403 129.317 223.623 129.208 223.937 129.074C224.251 128.94 224.531 128.865 224.785 128.696C225.354 128.394 225.863 128.058 226.457 127.849C227.84 127.228 229.257 126.549 230.639 125.929C230.953 125.795 231.174 125.686 231.488 125.551C232.684 124.981 234.033 124.42 235.254 123.943C236.289 123.516 237.23 123.113 238.24 122.593C238.843 122.232 239.455 121.718 240.201 121.518" stroke="#C0AA80" stroke-width="0.6" stroke-miterlimit="10"/>
<path d="M205.227 134.587C206.094 133.905 207.831 133.489 208.866 133.062C209.087 132.953 209.273 132.903 209.435 132.76C210.317 132.324 211.09 131.667 212.032 131.265C212.753 130.971 213.44 130.737 214.136 130.351C214.229 130.326 214.356 130.242 214.45 130.217C215.646 129.647 216.901 129.11 218.182 128.667C219.496 128.165 220.667 127.502 221.898 126.872C222.153 126.704 222.432 126.629 222.712 126.554C223.026 126.42 223.34 126.286 223.594 126.118C224.163 125.816 224.647 125.386 225.216 125.084C226.608 124.311 228.025 123.632 229.417 122.859C229.731 122.725 229.985 122.557 230.299 122.423C231.53 121.793 232.76 121.164 234.109 120.602C235.177 120.116 236.119 119.714 237.045 119.066C237.588 118.671 238.209 118.005 238.955 117.805" stroke="#C0AA80" stroke-width="0.6" stroke-miterlimit="10"/>
<path d="M203.972 133.073C204.848 132.239 206.551 131.883 207.679 131.43C207.9 131.321 208.086 131.271 208.307 131.162C209.223 130.667 209.972 129.917 210.854 129.48C211.609 129.128 212.296 128.894 212.992 128.508C213.085 128.483 213.213 128.399 213.306 128.374C214.536 127.744 215.826 127.149 217.081 126.613C218.43 126.051 219.551 125.201 220.816 124.513C221.07 124.345 221.35 124.27 221.605 124.101C221.919 123.967 222.233 123.833 222.487 123.665C223.031 123.27 223.456 122.806 224.059 122.444C225.426 121.579 226.852 120.747 228.303 120.008C228.558 119.84 228.872 119.706 229.126 119.538C230.391 118.849 231.596 118.126 232.92 117.472C234.023 116.927 234.94 116.431 235.84 115.69C236.418 115.235 236.955 114.442 237.667 114.301" stroke="#C0AA80" stroke-width="0.6" stroke-miterlimit="10"/>
<path d="M202.718 131.562C203.824 130.466 205.797 130.187 207.062 129.498C207.978 129.003 208.643 128.125 209.653 127.605C210.535 127.168 211.315 126.91 212.138 126.439C213.344 125.716 214.667 125.062 215.898 124.432C217.221 123.778 218.318 122.835 219.591 121.994C220.135 121.598 220.754 121.482 221.297 121.087C221.875 120.632 222.241 120.134 222.819 119.68C224.161 118.721 225.621 117.83 227.047 116.998C228.6 116.082 230.129 115.073 231.682 114.157C232.76 113.518 233.677 113.023 234.553 112.189C235.071 111.7 235.617 110.754 236.388 110.647" stroke="#C0AA80" stroke-width="0.6" stroke-miterlimit="10"/>
<path d="M201.766 130.617C202.089 130.331 202.377 130.103 202.725 129.91C203.108 129.658 203.549 129.44 203.956 129.281C204.618 128.954 205.339 128.66 205.916 128.206C206.808 127.617 207.438 126.799 208.33 126.21C209.094 125.706 209.883 125.294 210.647 124.79C211.446 124.226 212.303 123.696 213.16 123.167C213.543 122.915 213.891 122.721 214.273 122.469C215.571 121.721 216.643 120.685 217.823 119.869C218.367 119.473 218.96 119.264 219.479 118.776C220.057 118.321 220.457 117.764 221.001 117.369C221.383 117.116 221.706 116.83 222.122 116.518C223.141 115.846 224.194 115.114 225.213 114.441C225.722 114.105 226.266 113.709 226.835 113.407C227.853 112.734 228.838 112.121 229.857 111.448C230.842 110.834 231.734 110.245 232.575 109.47C232.609 109.411 232.703 109.386 232.737 109.327C233.06 109.041 233.392 108.602 233.749 108.256C234.038 108.029 234.293 107.861 234.606 107.727" stroke="#C0AA80" stroke-width="0.6" stroke-miterlimit="10"/>
<path d="M200.839 129.767C201.221 129.514 201.45 129.253 201.833 129.001C202.215 128.748 202.597 128.496 202.979 128.244C203.616 127.823 204.312 127.437 204.855 127.041C205.688 126.419 206.318 125.6 207.15 124.977C207.89 124.38 208.62 123.934 209.393 123.277C210.166 122.62 210.906 122.023 211.738 121.4C212.12 121.147 212.443 120.861 212.791 120.668C214.006 119.793 215.077 118.756 216.232 117.847C216.776 117.451 217.345 117.149 217.863 116.661C218.382 116.172 218.841 115.649 219.419 115.194C219.742 114.908 220.158 114.596 220.54 114.344C221.534 113.578 222.587 112.846 223.606 112.174C224.15 111.778 224.694 111.383 225.203 111.046C226.163 110.339 227.182 109.667 228.201 108.994C229.22 108.321 230.111 107.732 230.953 106.957C230.987 106.898 231.08 106.873 231.114 106.814C231.437 106.528 231.77 106.089 232.186 105.777C232.475 105.55 232.729 105.382 232.984 105.214" stroke="#C0AA80" stroke-width="0.6" stroke-miterlimit="10"/>
<path d="M199.851 128.882C200.233 128.63 200.429 128.427 200.786 128.082C201.143 127.736 201.525 127.484 201.883 127.138C202.46 126.684 203.072 126.17 203.65 125.715C204.423 125.059 205.053 124.24 205.768 123.549C206.448 122.917 207.128 122.285 207.842 121.594C208.556 120.903 209.305 120.153 210.078 119.496C210.401 119.21 210.724 118.923 211.047 118.637C212.177 117.634 213.249 116.598 214.379 115.595C214.864 115.166 215.407 114.77 215.926 114.281C216.445 113.793 216.938 113.211 217.516 112.756C217.873 112.411 218.255 112.158 218.612 111.813C219.606 111.047 220.634 110.222 221.628 109.456C222.172 109.06 222.715 108.665 223.2 108.235C224.194 107.469 225.154 106.762 226.148 105.996C227.108 105.289 228.033 104.642 228.909 103.807C228.943 103.748 229.036 103.723 229.07 103.664C229.428 103.319 229.785 102.973 230.201 102.662C230.49 102.434 230.745 102.266 231.033 102.039" stroke="#C0AA80" stroke-width="0.6" stroke-miterlimit="10"/>
<path d="M198.958 127.972C199.4 127.754 199.536 127.517 199.927 127.112C200.285 126.767 200.642 126.421 200.94 126.042C201.492 125.494 202.045 124.946 202.598 124.398C203.312 123.707 203.942 122.889 204.632 122.104C205.287 121.379 205.883 120.62 206.538 119.895C207.227 119.11 207.916 118.326 208.606 117.542C208.929 117.256 209.227 116.876 209.55 116.589C210.621 115.553 211.667 114.423 212.773 113.327C213.291 112.839 213.776 112.409 214.295 111.92C214.813 111.432 215.307 110.85 215.825 110.361C216.183 110.015 216.54 109.67 216.922 109.418C217.891 108.558 218.919 107.733 219.913 106.967C220.456 106.572 220.975 106.083 221.519 105.687C222.453 104.887 223.447 104.121 224.441 103.355C225.401 102.648 226.302 101.907 227.178 101.073C227.212 101.014 227.305 100.989 227.339 100.93C227.696 100.584 228.053 100.239 228.504 99.8684C228.793 99.6411 229.047 99.4729 229.277 99.2115" stroke="#C0AA80" stroke-width="0.6" stroke-miterlimit="10"/>
<path d="M197.971 127.087C198.412 126.869 198.549 126.632 198.94 126.228C199.238 125.848 199.536 125.468 199.927 125.064C201.051 123.663 202.293 122.331 203.333 120.803C204.534 119.132 205.676 117.427 206.996 115.825C208.281 114.281 209.625 112.772 210.995 111.355C212.364 109.939 213.674 108.489 215.128 107.2C216.615 105.852 218.162 104.538 219.709 103.224C221.612 101.565 223.566 100.092 225.411 98.3985C225.861 98.028 226.253 97.6234 226.796 97.2279C227.085 97.0006 227.433 96.8074 227.545 96.4777" stroke="#C0AA80" stroke-width="0.6" stroke-miterlimit="10"/>
<path d="M196.823 126.346C197.206 126.093 197.376 125.798 197.683 125.266C198.016 124.827 198.289 124.354 198.621 123.915C198.919 123.536 199.158 123.122 199.421 122.801C200.291 121.569 201.219 120.371 202.029 119.105C202.131 118.928 202.199 118.809 202.302 118.632C203.444 116.927 204.468 115.154 205.762 113.458C206.69 112.26 207.618 111.061 208.63 109.991C208.894 109.67 209.124 109.409 209.388 109.088C210.111 108.245 210.894 107.436 211.642 106.685C212.195 106.138 212.654 105.615 213.207 105.067C214.602 103.744 216.021 102.514 217.415 101.191C218.741 99.9864 220.067 98.7816 221.334 97.5427C221.853 97.054 222.406 96.5061 222.924 96.0174C223.35 95.5536 223.8 95.1831 224.191 94.7785C224.48 94.5512 224.71 94.2898 224.881 93.9942" stroke="#C0AA80" stroke-width="0.6" stroke-miterlimit="10"/>
<path d="M195.641 125.662C195.93 125.435 196.11 124.987 196.451 124.396C196.724 123.923 197.031 123.391 197.397 122.893C197.67 122.42 197.909 122.006 198.207 121.627C199.085 120.242 199.929 118.917 200.808 117.532C200.91 117.355 201.012 117.177 201.115 117C202.241 115.049 203.333 113.158 204.637 111.31C205.472 110.136 206.272 109.023 207.225 107.918C207.455 107.656 207.685 107.395 207.949 107.074C208.638 106.29 209.327 105.506 210.017 104.721C210.476 104.199 210.936 103.676 211.454 103.187C212.662 101.914 213.988 100.709 215.289 99.4112C216.59 98.1132 217.832 96.781 219.134 95.483C219.652 94.9943 220.146 94.4123 220.699 93.8645C221.124 93.4008 221.549 92.937 221.881 92.4982C222.111 92.2368 222.341 91.9754 222.546 91.6207" stroke="#C0AA80" stroke-width="0.6" stroke-miterlimit="10"/>
<path d="M194.611 124.99C194.841 124.728 194.962 124.246 195.337 123.596C195.644 123.064 195.892 122.498 196.234 121.907C196.541 121.375 196.814 120.902 197.053 120.488C197.94 118.951 198.793 117.473 199.68 115.936C199.783 115.759 199.885 115.582 199.988 115.404C201.123 113.301 202.258 111.198 203.546 109.104C204.254 108.015 204.995 106.867 205.762 105.812C205.992 105.551 206.162 105.255 206.392 104.994C206.988 104.235 207.643 103.51 208.239 102.75C208.665 102.286 209.124 101.764 209.55 101.3C210.664 100.052 211.838 98.8379 213.012 97.624C214.254 96.2919 215.471 94.8665 216.747 93.4753C217.24 92.8933 217.793 92.3455 218.228 91.7294C218.594 91.2315 219.019 90.7677 219.386 90.2699C219.615 90.0084 219.82 89.6538 219.932 89.3241" stroke="#C0AA80" stroke-width="0.6" stroke-miterlimit="10"/>
<path d="M193.759 124.418C193.836 124.148 194.084 123.581 194.435 122.838C194.683 122.272 194.999 121.587 195.34 120.996C195.588 120.43 195.895 119.898 196.075 119.45C196.878 117.786 197.834 116.131 198.696 114.501C198.799 114.323 198.935 114.087 198.979 113.876C200.157 111.561 201.243 109.272 202.599 107.059C203.272 106.03 203.827 104.931 204.501 103.901C204.671 103.606 204.867 103.404 205.038 103.108C205.54 102.374 206.102 101.674 206.757 100.948C207.183 100.485 207.549 99.9867 207.974 99.523C208.996 98.2999 209.983 97.136 211.064 95.9471C212.34 94.5558 213.473 93.0031 214.63 91.5436C215.124 90.9616 215.618 90.3796 216.086 89.7044C216.453 89.2066 216.853 88.6496 217.16 88.1176C217.365 87.7629 217.536 87.4673 217.647 87.1377" stroke="#C0AA80" stroke-width="0.6" stroke-miterlimit="10"/>
<path d="M192.872 123.907C192.943 123.238 194.329 120.019 195.098 118.414C196.047 116.361 197.055 114.342 198.063 112.323C199.251 109.856 200.439 107.389 201.72 104.897C202.241 103.858 202.762 102.819 203.342 101.814C203.922 100.809 204.586 99.9317 205.344 99.0292C206.604 97.3924 207.771 95.7805 209.091 94.1778C210.342 92.6933 211.416 91.1065 212.549 89.5537C213.613 88.1192 214.839 86.5415 215.338 84.8589" stroke="#C0AA80" stroke-width="0.6" stroke-miterlimit="10"/>
<path d="M191.764 123.504C191.724 123.165 191.878 122.624 192.101 121.964C192.222 121.482 192.47 120.916 192.625 120.375C192.814 119.775 193.028 119.268 193.217 118.667C193.406 118.067 193.654 117.501 193.868 116.994C194.339 115.769 194.962 114.552 195.492 113.361C195.843 112.617 196.227 111.815 196.519 111.037C197.083 109.787 197.682 108.477 198.246 107.227C198.776 106.035 199.331 104.937 199.921 103.78C200.408 102.8 200.929 101.761 201.475 100.815C202.021 99.8693 202.719 98.9326 203.324 98.021C203.554 97.7596 203.725 97.464 203.954 97.2026C204.892 95.8522 205.795 94.5608 206.791 93.2445C207.26 92.5693 207.763 91.835 208.231 91.1598C208.802 90.3073 209.373 89.4547 209.944 88.6022C210.813 87.37 211.915 85.3261 212.429 83.8891" stroke="#C0AA80" stroke-width="0.6" stroke-miterlimit="10"/>
<path d="M190.692 123.041C190.626 122.609 190.756 121.975 190.979 121.315C191.168 120.715 191.356 120.115 191.58 119.455C191.803 118.796 191.932 118.162 192.155 117.502C192.379 116.843 192.602 116.184 192.791 115.583C193.262 114.358 193.792 113.166 194.229 112C194.52 111.222 194.871 110.479 195.221 109.735C195.785 108.485 196.291 107.2 196.762 105.975C197.258 104.843 197.754 103.71 198.309 102.612C198.796 101.632 199.283 100.652 199.829 99.7066C200.375 98.7608 200.98 97.8491 201.551 96.9966C201.722 96.701 201.952 96.4396 202.122 96.144C202.966 94.8186 203.81 93.4931 204.654 92.1677C205.123 91.4925 205.533 90.7832 206.001 90.108C206.479 89.2804 207.05 88.4278 207.587 87.6344C208.294 86.5454 209.296 84.1285 209.674 82.928" stroke="#C0AA80" stroke-width="0.6" stroke-miterlimit="10"/>
<path d="M189.82 122.775C189.729 122.25 189.834 121.522 189.998 120.829C190.162 120.135 190.326 119.442 190.583 118.723C190.781 117.971 190.886 117.243 191.143 116.525C191.341 115.772 191.599 115.053 191.856 114.335C192.234 113.134 192.671 111.968 193.142 110.743C193.433 109.965 193.69 109.246 194.041 108.503C194.512 107.277 194.983 106.052 195.454 104.826C195.857 103.719 196.353 102.587 196.874 101.548C197.361 100.568 197.755 99.6131 198.301 98.6673C198.813 97.7806 199.359 96.8348 199.93 95.9823C200.1 95.6867 200.271 95.3911 200.407 95.1547C201.158 93.8542 201.943 92.4947 202.694 91.1942C203.104 90.4849 203.513 89.7755 203.889 89.1253C204.366 88.2978 204.844 87.4702 205.322 86.6426C205.834 85.756 206.71 82.8729 207.104 81.918" stroke="#C0AA80" stroke-width="0.6" stroke-miterlimit="10"/>
<path d="M189.068 122.577C188.952 121.959 189.066 121.079 189.171 120.351C189.31 119.564 189.542 118.753 189.74 118C189.972 117.188 190.052 116.368 190.225 115.522C190.457 114.71 190.689 113.898 190.922 113.087C191.3 111.886 191.643 110.745 192.08 109.578C192.337 108.86 192.595 108.141 192.886 107.364C193.357 106.138 193.794 104.972 194.172 103.771C194.516 102.63 194.978 101.557 195.44 100.484C195.892 99.5627 196.286 98.6078 196.798 97.7211C197.251 96.8003 197.763 95.9136 198.275 95.027C198.445 94.7314 198.582 94.495 198.752 94.1994C199.503 92.899 200.136 91.5302 200.734 90.2206C201.051 89.5363 201.401 88.7928 201.776 88.1426C202.161 87.34 202.58 86.4783 203.023 85.7099C203.433 85.0005 204.057 81.7353 204.466 81.026" stroke="#C0AA80" stroke-width="0.6" stroke-miterlimit="10"/>
<path d="M188.315 122.379C188.208 121.608 188.263 120.694 188.368 119.966C188.482 119.086 188.748 118.215 188.922 117.369C189.129 116.464 189.184 115.55 189.391 114.645C189.598 113.74 189.864 112.87 190.106 111.906C190.449 110.764 190.734 109.589 191.078 108.447C191.62 106.553 192.407 104.643 192.89 102.715C193.759 99.4341 195.593 96.3944 197.122 93.3365C198.096 91.3766 198.834 89.2803 199.782 87.2272C200.167 86.4247 200.552 85.6221 200.936 84.8195C201.15 84.3125 201.708 80.6152 201.981 80.1423" stroke="#C0AA80" stroke-width="0.6" stroke-miterlimit="10"/>
<path d="M187.063 122.365C186.897 121.56 186.977 120.739 187.057 119.918C187.171 119.038 187.378 118.133 187.551 117.288C187.758 116.383 187.813 115.468 188.02 114.564C188.227 113.659 188.435 112.754 188.642 111.849C188.926 110.673 189.236 109.591 189.521 108.415C190.003 106.487 190.698 104.602 191.18 102.674C192.05 99.3931 193.613 96.276 194.931 93.1747C195.427 92.0425 195.864 90.8761 196.335 89.6506C196.694 88.7548 196.961 87.8839 197.379 87.0222C197.705 86.1855 198.089 85.3829 198.381 84.6053C198.424 84.3939 198.545 83.9119 198.675 83.2775C198.934 82.0087 199.187 80.342 199.426 79.9282" stroke="#C0AA80" stroke-width="0.6" stroke-miterlimit="10"/>
<path d="M185.81 122.35C185.644 121.545 185.665 120.69 185.769 119.963C185.824 119.049 186.031 118.144 186.145 117.264C186.294 116.325 186.348 115.411 186.522 114.565C186.67 113.626 186.843 112.78 187.05 111.875C187.3 110.758 187.585 109.583 187.836 108.466C188.318 106.538 188.86 104.644 189.309 102.775C190.085 99.5192 191.437 96.3588 192.602 93.2484C193.039 92.082 193.417 90.8815 193.854 89.7151C194.12 88.8443 194.48 87.9485 194.746 87.0776C195.072 86.2409 195.363 85.4633 195.629 84.5925C195.707 84.3219 195.827 83.8399 195.889 83.3237C196.114 82.1141 196.358 80.5997 196.64 79.9744" stroke="#C0AA80" stroke-width="0.6" stroke-miterlimit="10"/>
<path d="M184.616 122.371C184.45 121.566 184.437 120.77 184.482 120.008C184.537 119.094 184.685 118.155 184.799 117.275C184.913 116.395 184.968 115.481 185.116 114.542C185.23 113.662 185.437 112.757 185.586 111.818C185.777 110.667 186.027 109.551 186.312 108.375C186.702 106.472 187.243 104.578 187.633 102.675C188.35 99.3849 189.456 96.2404 190.444 93.0276C190.822 91.8271 191.166 90.6857 191.544 89.4852C191.81 88.6144 192.076 87.7435 192.377 86.8136C192.609 86.0019 192.934 85.1651 193.167 84.3534C193.278 84.0237 193.306 83.5667 193.426 83.0846C193.652 81.875 193.886 80.513 194.178 79.7354" stroke="#C0AA80" stroke-width="0.6" stroke-miterlimit="10"/>
<path d="M183.397 122.298C183.231 121.493 183.218 120.697 183.204 119.901C183.2 118.953 183.348 118.014 183.403 117.1C183.458 116.185 183.572 115.305 183.686 114.425C183.8 113.545 183.948 112.606 184.062 111.726C184.253 110.576 184.445 109.425 184.695 108.309C185.085 106.406 185.474 104.503 185.864 102.599C186.488 99.3342 187.416 96.0873 188.252 92.8654C188.537 91.6899 188.855 90.4552 189.199 89.3138C189.406 88.4088 189.673 87.538 189.88 86.633C190.112 85.8213 190.285 84.9755 190.552 84.1046C190.604 83.7408 190.725 83.2588 190.811 82.8359C191.003 81.6853 191.262 80.4165 191.529 79.5457" stroke="#C0AA80" stroke-width="0.6" stroke-miterlimit="10"/>
<path d="M182.203 122.318C181.788 120.581 182.015 118.821 182.091 117.052C182.384 112.176 183.286 107.338 184.154 102.558C185.003 98.0834 185.853 93.6086 186.855 89.1429C187.322 86.9691 187.789 84.7954 188.162 82.6466C188.354 81.4961 188.57 80.4388 188.88 79.3565" stroke="#C0AA80" stroke-width="0.6" stroke-miterlimit="10"/>
<path d="M181.28 122.415C180.805 120.643 180.965 119.002 181.04 117.233C181.059 116.928 181.077 116.623 181.07 116.225C181.217 113.788 181.456 111.325 181.755 108.897C182.026 106.925 182.272 104.86 182.544 102.889C182.63 102.466 182.657 102.009 182.744 101.586C183.049 99.5556 183.296 97.4909 183.635 95.4013C183.817 94.4031 183.94 93.3708 184.123 92.3726C184.271 91.4335 184.385 90.5535 184.592 89.6485C184.601 89.4962 184.61 89.3438 184.713 89.1665C185.009 87.2883 185.364 85.4443 185.66 83.5661C185.67 83.4137 185.704 83.3546 185.713 83.2023C185.852 82.4155 185.957 81.6879 186.096 80.9012C186.148 80.5373 186.225 80.2668 186.337 79.9371" stroke="#C0AA80" stroke-width="0.6" stroke-miterlimit="10"/>
<path d="M180.415 122.547C179.916 120.682 180.032 119.252 180.108 117.483C180.126 117.178 180.144 116.874 180.104 116.535C180.157 114.122 180.362 111.719 180.627 109.349C180.805 107.403 181.017 105.397 181.195 103.451C181.222 102.994 181.275 102.63 181.302 102.173C181.514 100.167 181.667 98.1277 181.879 96.1221C181.968 95.1489 182.15 94.1507 182.274 93.1184C182.388 92.2384 182.442 91.3243 182.556 90.4443C182.566 90.2919 182.575 90.1396 182.584 89.9872C182.787 88.134 183.049 86.315 183.311 84.4959C183.32 84.3436 183.354 84.2844 183.363 84.1321C183.468 83.4045 183.607 82.6177 183.712 81.8901C183.764 81.5263 183.842 81.2557 183.953 80.926" stroke="#C0AA80" stroke-width="0.6" stroke-miterlimit="10"/>
<path d="M179.493 122.645C179.027 120.721 179.041 119.468 179.058 117.665C179.076 117.36 179.094 117.055 179.053 116.717C179.072 114.363 179.184 111.984 179.356 109.64C179.441 107.719 179.559 105.738 179.644 103.817C179.672 103.36 179.665 102.962 179.751 102.539C179.87 100.558 179.93 98.5435 179.99 96.5288C180.02 95.5214 180.168 94.5823 180.198 93.575C180.253 92.6609 180.273 91.8059 180.328 90.8918C180.337 90.7394 180.346 90.5871 180.356 90.4347C180.465 88.6065 180.634 86.8124 180.837 84.9592C180.846 84.8069 180.88 84.7477 180.89 84.5954C180.994 83.8678 181.04 83.106 181.145 82.3784C181.197 82.0146 181.275 81.744 181.352 81.4734" stroke="#C0AA80" stroke-width="0.6" stroke-miterlimit="10"/>
<path d="M178.569 122.742C178.045 120.784 178.049 119.683 178.007 117.846C178.025 117.541 178.009 117.295 178.003 116.898C177.928 114.569 178.065 112.284 178.084 109.93C178.11 107.975 178.102 106.078 178.093 104.182C178.086 103.784 178.114 103.327 178.107 102.929C178.133 100.973 178.006 99.0084 178.032 97.0528C178.027 96.1046 178.116 95.1314 178.146 94.124C178.167 93.269 178.129 92.3799 178.09 91.4908C178.099 91.3384 178.109 91.1861 178.118 91.0337C178.075 89.1963 178.21 87.4614 178.379 85.6673C178.354 85.574 178.422 85.4558 178.397 85.3626C178.443 84.6008 178.548 83.8732 178.652 83.1456C178.705 82.7818 178.748 82.5703 178.86 82.2406" stroke="#C0AA80" stroke-width="0.6" stroke-miterlimit="10"/>
<path d="M177.705 122.874C177.021 120.509 177.135 119.629 177.036 117.207C176.928 114.937 176.972 112.677 176.897 110.349C176.882 108.054 176.715 105.751 176.64 103.422C176.573 101.491 176.353 99.5517 176.226 97.587C176.163 96.6046 176.218 95.6905 176.154 94.7081C176.125 93.6667 176.003 92.6502 175.939 91.6678C175.803 89.8554 175.845 88.1454 176.014 86.3514C176.034 85.4964 176.114 84.6755 176.194 83.8546C176.212 83.5499 176.29 83.2793 176.401 82.9497" stroke="#C0AA80" stroke-width="0.6" stroke-miterlimit="10"/>
<path d="M176.764 123.276C176.18 121.284 176.135 119.997 175.85 117.625C175.793 117.041 175.736 116.456 175.68 115.872C175.535 114.212 175.483 112.527 175.338 110.867C175.168 109.114 175.057 107.394 174.98 105.616C174.983 105.066 174.926 104.481 174.894 103.99C174.768 102.026 174.548 100.086 174.387 98.1802C174.289 97.2569 174.285 96.3087 174.222 95.3263C174.099 94.3099 174.036 93.3275 173.948 92.2519C173.819 90.8375 173.808 89.4913 173.831 88.086C173.824 87.688 173.817 87.2901 173.777 86.9513C173.745 86.4601 173.747 85.9098 173.775 85.4527C173.793 85.148 173.845 84.7842 173.864 84.4795C173.882 84.1748 173.9 83.8701 174.071 83.5746" stroke="#C0AA80" stroke-width="0.6" stroke-miterlimit="10"/>
<path d="M175.847 123.771C175.422 122.186 175.066 120.483 174.653 118.195C174.537 117.577 174.421 116.958 174.389 116.467C174.151 114.832 174.006 113.172 173.802 111.478C173.539 109.749 173.428 108.03 173.258 106.277C173.26 105.727 173.17 105.201 173.172 104.651C173.045 102.686 172.732 100.772 172.512 98.832C172.415 97.9087 172.317 96.9855 172.22 96.0622C172.097 95.0457 171.975 94.0292 171.852 93.0127C171.723 91.5983 171.712 90.2521 171.583 88.8377C171.576 88.4397 171.535 88.1009 171.529 87.703C171.497 87.2118 171.465 86.7206 171.434 86.2294C171.452 85.9247 171.411 85.5859 171.464 85.2221C171.482 84.9174 171.5 84.6127 171.578 84.3421" stroke="#C0AA80" stroke-width="0.6" stroke-miterlimit="10"/>
<path d="M174.871 124.232C174.546 123.02 174.031 120.91 173.49 118.706C173.316 118.054 173.2 117.435 173.1 117.062C172.709 115.418 172.471 113.783 172.174 112.114C171.817 110.41 171.647 108.657 171.536 106.938C171.539 106.388 171.448 105.862 171.391 105.278C171.231 103.372 170.951 101.398 170.638 99.4837C170.482 98.5263 170.384 97.6031 170.193 96.7048C170.012 95.6542 169.855 94.6968 169.767 93.6212C169.638 92.2068 169.568 90.8265 169.404 89.4712C169.364 89.1323 169.298 88.7003 169.257 88.3614C169.166 87.8361 169.135 87.3449 169.103 86.8538C169.062 86.5149 169.08 86.2102 169.133 85.8464C169.151 85.5417 169.169 85.237 169.188 84.9323" stroke="#C0AA80" stroke-width="0.6" stroke-miterlimit="10"/>
<path d="M173.955 124.728C173.73 123.888 172.996 121.337 172.328 119.217C172.094 118.53 171.944 117.971 171.785 117.564C171.267 116.004 170.97 114.335 170.58 112.69C170.13 111.012 169.926 109.318 169.79 107.506C169.733 106.921 169.702 106.43 169.645 105.846C169.425 103.906 169.112 101.991 168.739 100.042C168.549 99.144 168.392 98.1866 168.201 97.2883C167.986 96.2968 167.804 95.2462 167.741 94.2638C167.612 92.8494 167.482 91.435 167.285 90.1388C167.185 89.7658 167.178 89.3679 167.078 88.9949C166.988 88.4696 166.863 88.0034 166.772 87.4781C166.731 87.1392 166.749 86.8345 166.768 86.5298C166.786 86.2251 166.804 85.9204 166.729 85.6407" stroke="#C0AA80" stroke-width="0.6" stroke-miterlimit="10"/>
<path d="M172.979 125.19C172.864 124.571 171.117 119.543 170.53 118.101C169.86 116.532 169.563 114.862 169.045 113.302C168.443 111.615 168.239 109.921 168.069 108.167C167.779 104.847 167.041 101.348 166.166 98.0842C165.517 95.66 165.57 93.2474 165.038 90.8914C164.848 89.9931 164.53 89.1789 164.339 88.2807C164.223 87.6621 164.387 86.9686 164.178 86.375" stroke="#C0AA80" stroke-width="0.6" stroke-miterlimit="10"/>
<path d="M171.96 125.862C171.642 125.048 170.179 120.893 169.534 119.417C168.745 117.78 168.296 116.101 167.634 114.38C166.923 112.472 166.33 110.632 165.992 108.624C165.522 105.752 164.909 102.718 164.101 99.8869C163.467 97.7082 163.452 95.4138 162.818 93.2352C162.459 92.0822 162.057 91.1406 161.698 89.9876C161.464 89.3008 161.426 88.4117 161.251 87.759" stroke="#C0AA80" stroke-width="0.6" stroke-miterlimit="10"/>
<path d="M171 126.569C170.446 125.619 169.301 122.278 168.596 120.768C167.783 119.037 167.063 117.281 166.283 115.492C165.37 113.388 164.481 111.377 163.941 109.174C163.35 106.784 162.803 104.182 162.026 101.842C161.383 99.8157 161.266 97.6986 160.589 95.7314C160.037 94.2304 159.6 93.348 159.014 91.9061C158.721 91.1852 158.514 90.0413 158.315 89.2954" stroke="#C0AA80" stroke-width="0.6" stroke-miterlimit="10"/>
<path d="M169.982 127.242C169.225 126.096 168.423 123.663 167.6 122.084C166.703 120.226 165.771 118.427 164.873 116.569C163.758 114.27 162.667 112.064 161.831 109.689C161.213 107.756 160.604 105.671 159.927 103.704C159.275 101.83 159.114 99.9242 158.335 98.1343C157.615 96.3786 157.153 95.4029 156.306 93.7313C155.954 92.9763 155.486 91.6026 155.32 90.7976" stroke="#C0AA80" stroke-width="0.6" stroke-miterlimit="10"/>
<path d="M168.963 127.914C168.003 126.572 167.486 125.012 166.638 123.34C165.622 121.414 164.513 119.513 163.556 117.621C162.238 115.126 160.945 112.724 159.813 110.179C159.168 108.703 158.532 107.075 157.887 105.599C157.191 103.936 156.869 102.174 156.14 100.57C155.192 98.5258 154.765 97.491 153.69 95.5306C153.279 94.7414 152.608 93.1721 152.358 92.2397" stroke="#C0AA80" stroke-width="0.6" stroke-miterlimit="10"/>
<path d="M168.003 128.621C166.841 127.084 166.666 126.431 165.7 124.691C164.6 122.637 163.305 120.786 162.205 118.732C160.744 116.076 159.376 113.394 157.821 110.763C157.182 109.685 156.45 108.632 155.905 107.529C155.201 106.019 154.776 104.434 154.003 103.042C152.828 100.708 152.435 99.6143 151.099 97.4241C150.569 96.5667 149.79 94.7768 149.481 93.8103" stroke="#C0AA80" stroke-width="0.6" stroke-miterlimit="10"/>
<path d="M166.881 129.471C166.165 128.664 165.745 128.027 165.358 127.331C165.081 126.856 164.838 126.321 164.477 125.719C164.308 125.464 164.174 125.15 163.947 124.861C163.586 124.258 163.165 123.622 162.804 123.019C162.131 122 161.492 120.922 160.913 119.878C160.829 119.751 160.745 119.623 160.695 119.437C159.863 118.011 159.031 116.585 158.199 115.159C157.586 114.174 156.913 113.155 156.299 112.17C155.988 111.754 155.651 111.244 155.34 110.828C154.945 110.285 154.549 109.741 154.188 109.138C153.524 107.967 153.022 106.652 152.358 105.481C152.249 105.261 152.106 105.099 151.997 104.878C151.467 104.021 151.047 103.384 150.72 102.722C150.224 101.806 149.67 100.855 148.736 99.6064C148.088 98.6807 147.088 96.9999 146.829 96.2199" stroke="#C0AA80" stroke-width="0.6" stroke-miterlimit="10"/>
<path d="M165.82 130.356C165.129 129.642 164.649 128.971 164.229 128.334C163.951 127.858 163.674 127.383 163.313 126.78C163.144 126.526 163.01 126.212 162.783 125.923C162.422 125.32 162.001 124.683 161.606 124.14C160.933 123.121 160.353 122.077 159.715 120.999C159.631 120.871 159.547 120.744 159.497 120.558C158.665 119.132 157.74 117.731 156.84 116.423C156.192 115.497 155.519 114.478 154.778 113.577C154.467 113.161 154.096 112.711 153.751 112.354C153.321 111.869 152.867 111.291 152.53 110.782C151.773 109.636 151.169 108.498 150.412 107.352C150.269 107.191 150.16 106.97 150.016 106.809C149.478 106.103 148.964 105.492 148.544 104.855C148.098 104.125 147.391 103.165 146.364 101.941C145.505 100.972 144.402 99.4688 144.193 98.8752" stroke="#C0AA80" stroke-width="0.6" stroke-miterlimit="10"/>
<path d="M164.791 131.181C164.066 130.526 163.552 129.914 163.107 129.184C162.83 128.709 162.493 128.2 162.098 127.656C161.929 127.401 161.702 127.112 161.534 126.858C161.173 126.255 160.718 125.677 160.357 125.074C159.684 124.055 159.104 123.012 158.491 122.027C158.407 121.899 158.323 121.772 158.238 121.645C157.372 120.278 156.413 118.936 155.42 117.653C154.679 116.752 154.031 115.827 153.197 114.951C152.851 114.594 152.481 114.143 152.076 113.752C151.613 113.327 151.124 112.808 150.728 112.264C149.903 111.236 149.146 110.09 148.321 109.062C148.178 108.901 148.035 108.739 147.892 108.578C147.319 107.932 146.771 107.379 146.257 106.767C145.862 106.223 144.978 105.161 143.882 104.056C142.845 102.984 141.64 101.658 141.422 101.217" stroke="#C0AA80" stroke-width="0.6" stroke-miterlimit="10"/>
<path d="M163.729 132.065C163.028 131.503 162.456 130.857 161.976 130.186C161.605 129.736 161.269 129.226 160.933 128.717C160.764 128.462 160.537 128.173 160.369 127.918C159.914 127.341 159.553 126.738 159.158 126.194C158.451 125.235 157.871 124.191 157.292 123.147C157.208 123.019 157.123 122.892 157.039 122.765C156.173 121.398 155.18 120.115 154.153 118.891C153.412 117.99 152.637 117.149 151.861 116.307C151.457 115.916 151.111 115.559 150.672 115.227C150.15 114.767 149.686 114.342 149.256 113.857C148.338 112.854 147.513 111.826 146.56 110.882C146.417 110.721 146.274 110.559 146.097 110.457C145.49 109.87 144.873 109.435 144.301 108.789C143.93 108.339 142.859 107.327 141.636 106.305C140.447 105.225 139.115 103.983 138.947 103.728" stroke="#C0AA80" stroke-width="0.6" stroke-miterlimit="10"/>
<path d="M162.607 132.915C161.932 132.446 161.3 131.766 160.786 131.154C160.248 130.449 159.684 129.651 159.145 128.946C158.691 128.368 158.295 127.825 157.934 127.222C157.143 126.135 156.513 124.904 155.781 123.851C154.881 122.543 153.795 121.286 152.733 120.121C151.613 118.922 150.374 117.655 149.023 116.718C147.377 115.61 146.063 114.063 144.52 112.778C143.736 112.089 142.849 111.577 142.065 110.888C141.458 110.301 136.522 106.427 136.193 106.315" stroke="#C0AA80" stroke-width="0.6" stroke-miterlimit="10"/>
<path d="M161.825 133.725C161.031 133.188 160.163 132.371 159.615 131.818C159.042 131.172 158.435 130.585 157.863 129.939C157.374 129.421 156.978 128.877 156.49 128.359C155.655 127.483 155.076 126.439 154.276 125.504C153.307 124.315 152.178 123.268 151.048 122.222C149.834 121.048 148.586 119.933 147.176 118.962C145.708 117.956 144.469 116.689 143.102 115.507C142.318 114.817 141.559 114.221 140.74 113.591C139.626 112.79 135.155 109.342 134.293 108.923" stroke="#C0AA80" stroke-width="0.6" stroke-miterlimit="10"/>
<path d="M160.949 134.559C160.037 133.954 158.873 132.966 158.385 132.448C157.719 131.827 157.162 131.426 156.52 130.899C155.963 130.498 155.568 129.955 155.045 129.495C154.202 128.772 153.638 127.973 152.863 127.132C151.826 126.06 150.619 125.285 149.514 124.331C148.232 123.276 146.891 122.186 145.54 121.249C144.215 120.405 143.085 119.358 141.896 118.278C141.112 117.589 140.446 116.968 139.593 116.397C138.066 115.357 133.93 112.418 132.571 111.633" stroke="#C0AA80" stroke-width="0.6" stroke-miterlimit="10"/>
<path d="M160.074 135.393C159.069 134.813 157.678 133.536 157.121 133.136C156.42 132.574 155.795 132.292 155.086 131.882C154.495 131.541 154.099 130.998 153.508 130.656C152.68 130.178 152.108 129.533 151.323 128.843C150.219 127.89 148.968 127.326 147.829 126.432C146.513 125.435 145.103 124.464 143.66 123.552C142.571 122.844 141.457 122.043 140.47 121.158C139.745 120.503 139.113 119.823 138.226 119.311C136.285 118.033 132.52 115.544 130.628 114.452" stroke="#C0AA80" stroke-width="0.6" stroke-miterlimit="10"/>
<path d="M159.291 136.202C158.168 135.554 156.481 134.107 155.924 133.707C155.19 133.204 154.521 133.133 153.778 132.783C153.153 132.501 152.757 131.957 152.098 131.734C151.261 131.409 150.611 131.033 149.911 130.471C148.738 129.636 147.41 129.343 146.237 128.508C144.827 127.536 143.443 126.658 141.965 125.805C141.019 125.259 140.014 124.679 139.205 123.896C138.48 123.241 137.941 122.536 137.113 122.058C134.665 120.566 131.364 118.502 128.94 117.103" stroke="#C0AA80" stroke-width="0.6" stroke-miterlimit="10"/>
<path d="M158.483 136.918C157.208 136.261 155.319 134.618 154.728 134.277C153.959 133.833 153.282 133.915 152.47 133.683C151.811 133.46 151.415 132.916 150.722 132.752C149.876 132.579 149.241 132.449 148.473 132.006C147.232 131.289 145.86 131.207 144.678 130.524C143.2 129.671 141.723 128.818 140.245 127.964C139.476 127.521 138.58 127.161 137.974 126.574C137.248 125.919 136.769 125.248 135.941 124.77C133.011 123.157 130.148 121.426 127.252 119.754" stroke="#C0AA80" stroke-width="0.6" stroke-miterlimit="10"/>
<path d="M125.716 122.414C128.258 123.881 130.741 125.315 133.351 126.664C134.119 127.108 134.667 127.66 135.367 128.222C136.008 128.75 136.938 129.051 137.648 129.46C139.159 130.254 140.706 130.989 142.217 131.783C143.434 132.407 144.83 132.582 146.14 133.181C147.001 133.599 147.847 133.772 148.811 134.014C149.623 134.246 150.205 134.74 151.017 134.972C152.04 135.247 153.013 135.336 153.993 135.823C154.736 136.174 156.516 137.595 157.792 138.253" stroke="#C0AA80" stroke-width="0.6" stroke-miterlimit="10"/>
<path d="M124.215 125.015C126.343 126.243 128.539 127.354 130.735 128.464C131.538 128.849 132.026 129.367 132.702 129.836C133.377 130.304 134.248 130.571 135.025 130.862C136.605 131.538 138.152 132.273 139.732 132.949C141.041 133.547 142.437 133.723 143.781 134.262C144.795 134.69 145.759 134.931 146.842 135.241C147.806 135.482 148.599 136.019 149.47 136.286C150.764 136.638 151.973 136.864 153.165 137.394C154.026 137.813 155.766 138.896 157.041 139.553" stroke="#C0AA80" stroke-width="0.6" stroke-miterlimit="10"/>
<path d="M122.747 127.557C124.495 128.487 126.337 129.393 128.12 130.264C128.863 130.615 129.42 131.015 130.07 131.391C130.78 131.8 131.625 131.973 132.403 132.265C134.017 132.881 135.691 133.532 137.305 134.149C138.649 134.688 140.104 134.898 141.448 135.437C142.614 135.874 143.731 136.125 144.931 136.503C146.013 136.812 146.959 137.358 147.982 137.634C149.488 138.03 150.934 138.392 152.396 139C153.41 139.427 155.04 140.29 156.315 140.947" stroke="#C0AA80" stroke-width="0.6" stroke-miterlimit="10"/>
<path d="M121.28 130.098C122.673 130.823 124.135 131.431 125.538 132.005C126.222 132.321 126.813 132.662 127.473 132.885C128.216 133.236 129.003 133.375 129.756 133.573C131.438 134.071 133.112 134.722 134.794 135.221C136.206 135.642 137.593 135.97 139.005 136.391C140.358 136.778 141.618 137.19 142.911 137.543C144.112 137.921 145.244 138.417 146.386 138.76C148.161 139.234 149.844 139.732 151.517 140.383C152.684 140.82 154.239 141.403 155.514 142.06" stroke="#C0AA80" stroke-width="0.6" stroke-miterlimit="10"/>
<path d="M119.871 132.674C120.851 133.161 121.967 133.411 123.015 133.78C123.675 134.003 124.3 134.285 124.9 134.474C125.653 134.672 126.405 134.87 127.192 135.009C128.943 135.39 130.616 136.04 132.367 136.421C133.813 136.783 135.259 137.145 136.706 137.507C138.152 137.869 139.623 138.324 141.094 138.779C142.413 139.225 143.731 139.672 145.025 140.024C147.012 140.541 148.897 141.235 150.875 141.905C152.194 142.351 153.64 142.713 154.916 143.37" stroke="#C0AA80" stroke-width="0.6" stroke-miterlimit="10"/>
<path d="M154.511 145.029C153.472 144.507 152.237 144.189 151.189 143.82C149.422 143.194 147.622 142.627 145.812 142.213C144.002 141.798 142.099 141.409 140.323 140.935C139.029 140.583 137.676 140.196 136.382 139.843C135.054 139.549 133.633 139.28 132.305 138.986C130.614 138.64 128.99 138.176 127.23 137.948C126.35 137.834 125.436 137.779 124.59 137.606C123.745 137.433 122.899 137.26 122.112 137.121C120.902 136.895 119.59 136.847 118.365 136.376" stroke="#C0AA80" stroke-width="0.6" stroke-miterlimit="10"/>
<path d="M154.511 145.029C153.472 144.507 152.237 144.189 151.189 143.82C149.422 143.194 147.622 142.627 145.812 142.213C144.002 141.798 142.099 141.409 140.323 140.935C139.029 140.583 137.676 140.196 136.382 139.843C135.054 139.549 133.633 139.28 132.305 138.986C130.614 138.64 128.99 138.176 127.23 137.948C126.35 137.834 125.436 137.779 124.59 137.606C123.745 137.433 122.899 137.26 122.112 137.121C120.902 136.895 119.59 136.847 118.365 136.376" stroke="#C0AA80" stroke-width="0.6" stroke-miterlimit="10"/>
<path d="M154.08 146.592C153.253 146.115 152.254 145.932 151.384 145.666C149.735 145.108 148.112 144.644 146.42 144.298C144.094 143.822 141.724 143.557 139.339 143.047C138.164 142.762 136.963 142.385 135.754 142.159C134.485 141.899 133.241 141.733 131.938 141.533C130.271 141.28 128.698 141.002 127.022 140.901C126.015 140.871 124.973 140.9 124 140.811C122.968 140.688 121.935 140.565 120.928 140.535C119.523 140.512 118.015 140.666 116.603 140.245" stroke="#C0AA80" stroke-width="0.6" stroke-miterlimit="10"/>
<path d="M154.08 146.592C153.253 146.115 152.254 145.932 151.384 145.666C149.735 145.108 148.112 144.644 146.42 144.298C144.094 143.822 141.724 143.557 139.339 143.047C138.164 142.762 136.963 142.385 135.754 142.159C134.485 141.899 133.241 141.733 131.938 141.533C130.271 141.28 128.698 141.002 127.022 140.901C126.015 140.871 124.973 140.9 124 140.811C122.968 140.688 121.935 140.565 120.928 140.535C119.523 140.512 118.015 140.666 116.603 140.245" stroke="#C0AA80" stroke-width="0.6" stroke-miterlimit="10"/>
<path d="M153.557 148.182C152.966 147.84 152.272 147.676 151.579 147.513C150.108 147.057 148.602 146.661 147.088 146.417C144.212 145.939 141.317 145.765 138.45 145.134C137.392 144.918 136.31 144.608 135.253 144.392C134.102 144.201 132.918 144.068 131.699 143.995C130.116 143.87 128.533 143.744 126.942 143.771C125.841 143.766 124.638 143.938 123.538 143.933C122.285 143.919 121.1 143.787 119.872 143.866C118.305 143.986 116.568 144.402 114.944 143.938" stroke="#C0AA80" stroke-width="0.6" stroke-miterlimit="10"/>
<path d="M153.557 148.182C152.966 147.84 152.272 147.676 151.579 147.513C150.108 147.057 148.602 146.661 147.088 146.417C144.212 145.939 141.317 145.765 138.45 145.134C137.392 144.918 136.31 144.608 135.253 144.392C134.102 144.201 132.918 144.068 131.699 143.995C130.116 143.87 128.533 143.744 126.942 143.771C125.841 143.766 124.638 143.938 123.538 143.933C122.285 143.919 121.1 143.787 119.872 143.866C118.305 143.986 116.568 144.402 114.944 143.938" stroke="#C0AA80" stroke-width="0.6" stroke-miterlimit="10"/>
<path d="M153.127 149.747C152.806 149.483 152.29 149.421 151.867 149.335C150.539 149.041 149.152 148.713 147.849 148.512C144.457 147.972 141.012 147.796 137.619 147.256C136.68 147.108 135.809 146.842 134.836 146.753C133.745 146.596 132.644 146.591 131.578 146.527C130.02 146.494 128.453 146.614 126.921 146.675C125.693 146.754 124.396 146.952 123.168 147.031C121.729 147.067 120.265 147.01 118.909 147.173C117.122 147.402 115.189 148.02 113.379 147.605" stroke="#C0AA80" stroke-width="0.6" stroke-miterlimit="10"/>
<path d="M153.127 149.747C152.806 149.483 152.29 149.421 151.867 149.335C150.539 149.041 149.152 148.713 147.849 148.512C144.457 147.972 141.012 147.796 137.619 147.256C136.68 147.108 135.809 146.842 134.836 146.753C133.745 146.596 132.644 146.591 131.578 146.527C130.02 146.494 128.453 146.614 126.921 146.675C125.693 146.754 124.396 146.952 123.168 147.031C121.729 147.067 120.265 147.01 118.909 147.173C117.122 147.402 115.189 148.02 113.379 147.605" stroke="#C0AA80" stroke-width="0.6" stroke-miterlimit="10"/>
<path d="M152.696 151.31C152.587 151.09 152.307 151.165 152.096 151.121C150.911 150.989 149.702 150.764 148.458 150.597C144.54 150.148 140.579 149.91 136.67 149.309C135.883 149.17 135.097 149.031 134.276 148.951C133.302 148.862 132.286 148.984 131.279 148.955C129.746 149.015 128.229 149.322 126.781 149.51C125.425 149.674 124.002 149.955 122.587 150.084C120.961 150.17 119.31 150.163 117.735 150.435C115.786 150.807 113.623 151.687 111.626 151.322" stroke="#C0AA80" stroke-width="0.6" stroke-miterlimit="10"/>
<path d="M152.462 152.672C152.098 152.62 151.632 152.745 151.234 152.752C150.04 152.772 148.83 152.546 147.671 152.507C144.319 152.306 140.986 151.8 137.65 151.845C136.702 151.849 135.862 152.074 134.939 152.171C133.923 152.294 132.872 152.475 131.88 152.691C130.457 152.972 128.94 153.279 127.448 153.679C125.49 154.203 124.073 154.883 122.031 155.28C120.455 155.552 118.736 155.663 117.219 155.97C115.516 156.326 113.167 157.255 111.593 156.978" stroke="#C0AA80" stroke-width="0.6" stroke-miterlimit="10"/>
<path d="M152.32 154.009C151.736 154.066 151.083 154.241 150.499 154.297C149.271 154.376 148.111 154.337 146.976 154.392C144.191 154.439 141.467 153.969 138.756 154.296C137.705 154.477 136.73 154.939 135.704 155.214C134.679 155.488 133.56 155.788 132.618 156.19C131.304 156.692 129.753 157.058 128.345 157.585C125.75 158.53 124.408 159.489 121.645 160.18C120.187 160.52 118.391 160.902 116.874 161.208C115.475 161.583 112.94 162.562 111.73 162.337" stroke="#C0AA80" stroke-width="0.6" stroke-miterlimit="10"/>
<path d="M152.086 155.371C151.28 155.537 150.441 155.762 149.611 155.834C148.442 155.947 147.274 156.061 146.105 156.174C143.919 156.41 141.802 156.527 139.651 156.704C138.489 157.215 137.445 157.795 136.283 158.306C135.248 158.733 134.12 159.185 133.11 159.706C131.846 160.394 130.32 160.853 128.937 161.474C125.789 162.967 124.32 164.01 121.014 165.096C119.64 165.564 117.775 166.063 116.342 166.497C115.189 166.856 112.433 167.945 111.587 167.771" stroke="#C0AA80" stroke-width="0.6" stroke-miterlimit="10"/>
<path d="M151.851 156.734C150.826 157.009 149.8 157.284 148.749 157.465C147.546 157.638 146.462 157.878 145.318 158.085C143.708 158.416 142.107 158.596 140.665 159.182C139.316 159.743 138.22 160.686 136.98 161.468C135.936 162.048 134.706 162.677 133.746 163.384C132.532 164.259 130.996 164.87 129.732 165.559C126.032 167.6 124.528 168.702 120.526 170.174C119.211 170.677 117.269 171.447 115.895 171.915C115.022 172.199 112.045 173.396 111.622 173.31" stroke="#C0AA80" stroke-width="0.6" stroke-miterlimit="10"/>
<path d="M111.632 178.753C111.632 178.753 114.795 177.506 115.423 177.237C116.678 176.701 118.757 175.694 120.012 175.158C124.593 173.231 126.248 172.138 130.501 169.55C131.834 168.743 133.285 168.004 134.416 167.002C135.419 166.083 136.624 165.361 137.677 164.629C139.019 163.67 140.302 162.676 141.703 161.751C142.629 161.103 143.495 160.422 144.589 160.028C145.717 159.576 146.836 159.277 148.039 159.104C149.276 158.873 150.488 158.548 151.735 158.164" stroke="#C0AA80" stroke-width="0.6" stroke-miterlimit="10"/>
<path d="M672.151 180.034C665.894 189.986 657.216 196.511 646.115 199.609C635.014 202.707 624.822 200.631 615.538 193.381C606.253 186.131 600.838 176.343 599.29 164.019C597.743 151.694 602.385 142.335 613.216 135.942C624.048 129.549 635.216 127.571 646.72 130.01C658.225 132.449 666.903 138.908 672.757 149.387C678.61 159.866 678.408 170.082 672.151 180.034Z" fill="#F5E2C5"/>
<path d="M566.851 149.061C569.274 140.279 575.297 132.508 584.955 125.753C594.565 119.032 605.845 118.241 618.835 123.424C631.855 128.62 644.223 136.604 655.941 147.382C667.63 158.134 672.949 170.479 671.933 184.429C671.426 191.397 669.029 196.858 664.762 200.838C660.49 204.822 654.318 207.345 646.217 208.385C638.073 209.429 631.82 211.017 627.476 213.158C623.131 215.299 620.652 218.016 620.151 221.334C619.193 227.68 616.021 233.848 610.611 239.838C605.229 245.797 597.422 249.279 587.158 250.26C576.91 251.239 566.22 248.595 555.082 242.304C549.537 239.173 546.314 235.274 545.35 230.618C544.384 225.954 545.674 220.474 549.279 214.161C552.904 207.814 555.575 202.368 557.291 197.826C559.005 193.288 559.774 189.628 559.568 186.862C559.166 181.467 559.667 176.037 561.072 170.571C562.483 165.083 564.409 157.913 566.851 149.061Z" stroke="#F9AF3C" stroke-width="0.5"/>
<path d="M674.159 222.789C659.312 232.341 645.774 245.002 633.547 260.768C627.463 268.611 620.957 273.04 614.032 274.112C607.109 275.183 599.713 272.908 591.834 267.228C576.021 255.83 562.637 244.12 551.68 232.099C540.754 220.112 535.718 206.142 536.566 190.176C537.414 174.197 543.071 161.033 553.531 150.666C564.02 140.271 575.495 132.345 587.956 126.885C600.396 121.435 613.289 120.43 626.643 123.871C640.004 127.314 651.765 134.172 661.927 144.453C672.091 154.735 680.359 168.019 686.726 184.311C689.9 192.432 690.427 199.681 688.338 206.075C686.25 212.469 681.536 218.043 674.159 222.789Z" stroke="#F9AF3C" stroke-width="0.5"/>
</svg>
