<svg width="1440" height="230" viewBox="0 0 1440 230" fill="none" xmlns="http://www.w3.org/2000/svg">
<path opacity="0.1" fill-rule="evenodd" clip-rule="evenodd" d="M1440 156.098L1380 152.381C1320 148.665 1200 141.231 1080 144.948C960 148.665 840 163.531 720 174.681C600 185.831 480 193.264 360 174.681C240 156.098 120 111.499 60 89.1988L0 66.8991V0H60C120 0 240 0 360 0C480 0 600 0 720 0C840 0 960 0 1080 0C1200 0 1320 0 1380 0H1440V156.098Z" fill="#C0AA80"/>
<path fill-rule="evenodd" clip-rule="evenodd" d="M1441 230L1381 210.833C1321 191.667 1201 153.333 1081 145.667C961 138 841 161 721 153.333C601 145.667 481 107.333 361 88.1667C241 69 121 69 61 69H1V0H61C121 0 241 0 361 0C481 0 601 0 721 0C841 0 961 0 1081 0C1201 0 1321 0 1381 0H1441V230Z" fill="white"/>
</svg>
